<svg version="1.0" xmlns="http://www.w3.org/2000/svg" width="506.667" height="506.667" viewBox="0 0 380 380"><path d="M165 15.6c-5.2.8-9.6 1.8-9.8 2.3-.2.6-1 .7-1.8.4-.8-.3-2.2-.2-3.1.2-1 .4-2.5.9-3.3 1-5.3.7-8 1.8-8 3.3 0 1.3-.2 1.4-.8.4-.7-1-1.5-1-3.6-.2-1.5.5-2.5 1.4-2.2 1.9.3.4-.5.6-1.8.4-3.1-.6-6.9 4.3-4.5 5.8 1.1.7 1.1.9-.3.9-1.3 0-1.8-.8-1.8-2.5 0-3 .2-3-4.9-.7l-4 1.9 3.4 3.3 3.4 3.3 1-2.4c1-2.4 1-2.4 1-.2.1 1.3.6 2.3 1.1 2.3.6 0 1.1-1 1.1-2.3.1-1.7.2-1.8.6-.4.3 1 1 1.6 1.6 1.3.7-.2 2.9-1 4.9-1.7 2.7-.9 3.5-1.6 3-2.8-.5-1.3-.3-1.4 1-.3 1.6 1.3 4.8.7 4.8-1 0-.5.3-.7.8-.5 1.2.8 11.6-1.4 14.1-3 1.8-1.1 2.2-1.2 1.6-.2-.3.8 0 .6.8-.4.9-1 1.7-1.3 1.9-.7.2.7 2.4.8 7.3 0 10.8-1.5 35.2-1.2 47.1.6 9.9 1.6 10.6 1.6 12.4-.1 2.1-1.9 2.8-.7.9 1.2-.9.9 0 1.4 3.2 2.3 8.7 2.2 17.6 5.4 25.7 9.1 4.5 2.1 8.2 3.3 8.2 2.6 0-.6.6-.3 1.3.6 1.6 2.2 14.7 9.8 15.7 9.2.5-.3 1.1.3 1.4 1.2.4 1 3 3.4 5.8 5.3 2.9 1.9 9.6 7.7 15 12.9 5.4 5.1 9.8 8.7 9.8 8 .1-.8.7-.1 1.4 1.6.7 1.6 3.5 5.8 6.2 9.2 2.7 3.4 6.6 8.9 8.7 12.2 2.5 4.1 4.4 6.1 5.6 6.1 1.1 0 2.3.5 2.7 1.1.4.8 0 .9-1.5.4-1.1-.3-2.1-.4-2.1-.1 0 1.8 8.8 17.5 9.5 16.9.4-.4.5-.2.1.5s.2 3.8 1.4 7c3.4 9.1 8.2 28.1 8.7 34.7.2 3.3.8 6.4 1.2 6.8.4.4.6 5.2.4 10.7-.4 9.3-.3 9.9 1.4 9.4s1.7-.5.1.9c-1.2.9-1.8 2.9-1.8 5.8 0 2.4-.5 7.3-1 10.9-.6 4.5-.6 6.8.2 7.7.8 1 .7 1.7-.5 2.6-1.6 1.3-5.5 14.9-5.2 18.5.1 1.2-.2 2.2-.5 2.2-.4 0-2.2 3.7-4 8.2-1.8 4.6-5 11.6-7.1 15.6-2.3 4.3-3.6 7.9-3.2 8.9.4 1 .2 1.4-.5.9-.6-.4-2.8 1.9-5.3 5.6-2.3 3.5-6.2 8.9-8.6 12-2.4 3.1-4.3 6.1-4.3 6.7 0 .6-.3 1-.7.9-.5-.1-5 4-10.1 9-5.1 5.1-9.7 9.2-10.2 9.2-.6 0-1 .7-1 1.5s-.3 1.4-.7 1.3c-.5-.2-5.6 2.9-11.5 6.7-10.7 6.9-10.8 7-10.4 10.5.5 3.4.5 3.5-.7.7-.6-1.5-1.4-2.7-1.8-2.7-.4 0-4.5 1.8-9.1 3.9-12.6 6-25.6 10.2-40 13.1-5.2 1-5.8 1.4-5.8 3.7 0 2.1-.2 2.4-1.5 1.3-.8-.7-1.5-.9-1.5-.4s-.7.1-1.5-1c-1.1-1.5-2.3-1.7-7.2-1.2-3.2.3-8.4.5-11.5.6-5 0-5.7.2-5.2 1.7.5 1.6.4 1.6-.8.2-.7-.9-2.5-1.9-4-2.2-2.3-.6-2.7-.5-2.1 1 .5 1.7.5 1.7-.8.1-.9-1.1-3.6-1.8-7.9-2.2-3.6-.3-11.4-1.7-17.5-3.1-6.7-1.5-11.1-2.1-11.3-1.5-.2.5-.8 1-1.3 1-.4 0-.6-.6-.3-1.4.3-.9-1.8-2.1-7.3-4.1-9.5-3.3-25.2-11-32.4-15.9l-5.4-3.6-1.2 4.7c-1.5 5.7-1.2 6.1 7.3 10.8 29.7 16.6 56.1 23.7 88.4 23.8 18.5 0 24-.7 24-3.4 0-1 .7-1.9 1.5-1.9s1.5.7 1.5 1.5c0 .9.9 1.5 2.3 1.5 5.9 0 36.2-9 43.7-13 1.1-.6 2-1.8 2-2.8 0-1.4.2-1.4.9-.3.8 1.2 1.4 1.1 3.8-.4 1.5-1.1 3.3-2 4-2.1 1.6-.3 12.6-6.9 18.6-11.2l4.8-3.5-2.2-2.3c-1.8-1.9-2-2.7-1.1-3.6.9-.9 1.2-.9 1.2 0 0 .6.7.9 1.6.5 1.3-.5 1.5-.2.9 1.5-1 3.3 1.1 2.7 6.4-1.5 6.6-5.5 17.1-15.4 17.1-16.3 0-.3 1.8-2.5 3.9-4.8 4-4.2 11.4-14.1 14.7-19.9 6.2-10.4 9.3-16 9.6-17.3.2-.8.6-1.7.9-2 .7-.5 5.9-13.2 6.3-15.3.2-.7.8-2.5 1.4-4 2-4.7 2.4-7.5 1.3-8.1-.5-.4-1.4.2-2 1.1-.9 1.6-1 1.6-1.1.2 0-1.8 2.6-3.3 4-2.4 1.2.8 4.7-15.5 5.9-27 .5-5.5 1-15.6 1-22.5.1-11.3-.1-12.3-1.4-10.6-1.4 1.9-2 4.4-1.6 7.3.1.7-.3 1.3-.9 1.3-1.6 0-1-3.6 1.7-11 1.8-4.5.4-16.1-3.4-29-1.5-5-1.7-5.3-2.4-3-.6 1.9-.7 1.4-.5-2 .3-5.3-1.9-12.2-7.6-24.3-2.9-6-4.4-8.3-5-7.5-.6.9-.8.7-.6-.7.3-2.4-2.1-8.5-3.3-8.5-.5 0-.9-.5-.9-1 0-1.3-7.1-12-7.9-12-.3 0-1.2-1.3-1.8-2.8-1.7-3.6-17.9-20.9-27.2-28.9-6-5.1-8.1-6.3-11-6.4-2.8 0-3.1-.2-1.6-.8 1.7-.7 1.3-1.2-3-4.4-2.8-2-5.7-3.4-6.5-3.1-.8.3-1.1.2-.7-.2.4-.4-.1-1.3-1.1-2-4.6-3.2-22.6-11.5-32.1-14.8-10-3.5-10.5-3.6-12.5-1.9-1.2 1-2.4 2.2-2.8 2.8-.5.6-.8.3-.8-.7 0-.9.8-2.1 1.7-2.7 2.5-1.3 1.8-1.7-6.7-3.5-18.9-3.8-43.8-4.7-62-2zm59 5.5c0 .6-.4.7-1 .4-.5-.3-1-1.1-1-1.6 0-.6.5-.7 1-.4.6.3 1 1.1 1 1.6zM144.7 26c0 2.3-.3 2.7-1.3 1.9-1-.8-1.1-1.5-.1-3 .6-1 1.2-1.9 1.3-1.9 0 0 .1 1.3.1 3zM130 27c0 .5-.2 1-.4 1-.3 0-.8-.5-1.1-1-.3-.6-.1-1 .4-1 .6 0 1.1.4 1.1 1zm115.5 0c.3.5.1 1-.4 1-.6 0-1.1-.5-1.1-1 0-.6.2-1 .4-1 .3 0 .8.4 1.1 1zM132 30.2c0 1.8-.2 2-.9.8-.6-.8-.7-1.8-.5-2.2.9-1.4 1.4-.9 1.4 1.4zm115.4.4c.4 1 .1 1.4-.6 1.2-1.5-.5-2.3-2.8-1-2.8.5 0 1.3.7 1.6 1.6zm10.5 3c1.7 3.7.8 3.9-1.3.4-.9-1.7-1.3-3-.8-3s1.4 1.2 2.1 2.6zm12.6 3.4c.3.5.1 1-.4 1-.6 0-1.1-.5-1.1-1 0-.6.2-1 .4-1 .3 0 .8.4 1.1 1zm7.2 3.2c-.3.8-.6.5-.6-.6-.1-1.1.2-1.7.5-1.3.3.3.4 1.2.1 1.9zm55 51c-.3.7-.5.2-.5-1.2s.2-1.9.5-1.3c.2.7.2 1.9 0 2.5zm30.8 113.4c-.8 2-1.8 3.5-2.1 3.2-.2-.3.3-2.5 1.2-4.9 1-2.3 1.9-3.8 2.1-3.2.2.6-.3 2.8-1.2 4.9zm-1 6.4c3.7 3.9 2.3 3.9-1.8 0-1.8-1.6-2.7-3-2.1-3 .5 0 2.3 1.3 3.9 3zm-8.5 34.5c0 1.2-.6 2.5-1.3 2.8-.9.3-1.2-.5-.9-2.9.5-3.7 2.2-3.7 2.2.1zm-1 6.1c0 .8-.5 1.2-1 .9-.6-.4-.8-1.1-.5-1.6.9-1.4 1.5-1.1 1.5.7zm-5.3 6.1c-1.2 2.8-1.6 3.2-1.6 1.6-.1-1.2.4-2.5 1-2.9.6-.3.8-1.5.5-2.7-.3-1.4-.2-1.7.6-.9.8.8.6 2.2-.5 4.9zm-4 7.5c-.3.8-.6.5-.6-.6-.1-1.1.2-1.7.5-1.3.3.3.4 1.2.1 1.9zm-3.1 15.5c-.7.7-2.6-.7-2.6-1.9 0-.6.6-.6 1.5.2.9.7 1.3 1.5 1.1 1.7zm-14.4 12.1c-.7.2-1.2 1-1.2 1.8 0 .9-.4 1.2-1 .9-.6-.4-.5-1.3.2-2.5.7-1 1.7-1.6 2.2-1.3.6.4.5.8-.2 1.1zm-2.7 6.1c.3.5.1 1.2-.5 1.6-.5.3-1-.1-1-.9 0-1.8.6-2.1 1.5-.7zm-3.8 3c-.3 1.5-.1 3.3.6 4 .6.6.7 1.1.1 1.1-.5 0-1.5-.9-2.2-2-1-1.6-1-2.4 0-4 1.7-2.7 2.2-2.5 1.5.9zm-2.4 5.8c-.4 1.1-.2 1.4.5.9.8-.5 1-.1.5 1-.6 1.6-.7 1.5-2-.2-.7-1-1.3-2.7-1.3-3.7 0-1.6.3-1.7 1.4-.7.8.6 1.2 1.9.9 2.7zM256 352c0 .5-.2 1-.4 1-.3 0-.8-.5-1.1-1-.3-.6-.1-1 .4-1 .6 0 1.1.4 1.1 1zm-90 8.7c0 .5-.5 1.5-1 2.3-.8 1.2-1 1.1-1-.8 0-1.2.5-2.2 1-2.2.6 0 1 .3 1 .7zm30.5.3c.3.5.1 1-.4 1-.6 0-1.1-.5-1.1-1 0-.6.2-1 .4-1 .3 0 .8.4 1.1 1zm14 2c.3.5.1 1-.4 1-.6 0-1.1-.5-1.1-1 0-.6.2-1 .4-1 .3 0 .8.4 1.1 1z"/><path d="M181 27.4c0 1.3.7 1.5 3.8 1 3.4-.5 22.7.8 33 2.2 2.6.4 4.2.3 4.2-.4 0-1.6-11.2-3.2-26.7-3.9-12.9-.5-14.3-.4-14.3 1.1zM163.3 28.3c-3.5.5-6.3 1.4-6.3 1.9s-.4.6-1 .3c-1.2-.8-9 1.3-9 2.4 0 .5-.8.7-1.8.4-2.3-.5-18.1 5.3-29.2 10.7-9.7 4.8-20.3 11.4-27.5 17.3-8.8 7.2-22.5 21.1-22.5 23 0 1-.4 1.6-.9 1.2-.5-.3-1.9.7-3.1 2.2-1.2 1.5-1.7 2.9-1.1 3.1 1 .3 8-6.7 8.2-8.3.1-1.8 19.9-18.9 29.2-25.3 9.5-6.6 19.8-12.2 30.2-16.4 8.6-3.6 9.9-4.1 11-4.3 5.9-1.4 9.5-2.8 9.5-3.6 0-.6.8-.9 1.8-.8.9.1 1.9 0 2.2-.1.3-.1 1.9-.3 3.5-.4 10.3-.9 15.5-2 15.5-3.2 0-1.5.1-1.5-8.7-.1zM173 28c0 .5 1.6 1 3.5 1s3.5-.5 3.5-1c0-.6-1.6-1-3.5-1s-3.5.4-3.5 1zM225 30.8c0 .6 2.6 1.8 5.8 2.6 3.1.9 7.6 2.2 10 3 3.4 1.2 4.2 1.2 4.2.2 0-.8-3-2.2-7.2-3.4-11-3.2-12.8-3.5-12.8-2.4z"/><path d="M108.8 33.6c-1.6.8-2.8 1.8-2.8 2.3 0 .4-.6.8-1.4.8-3.7 0-22.6 13.4-35.6 25.2-6.4 5.8-8 7.7-7.5 9.5.2 1.1.2 1.5-.1.8-.9-2.1-5.4 2.6-5 5.2.2 1.2.1 1.5-.1.8-.7-2-2-1.4-3.7 2-.8 1.8-1.6 2.9-1.6 2.4s-1 .3-2.1 1.8c-1.2 1.5-1.9 2.9-1.6 3.2.2.3 2.8.6 5.7.6 4.8.1 5.5-.1 8-3.3 1.6-1.8 2.6-3.7 2.4-4.1-.3-.5.2-.8 1-.8s2-.9 2.6-2c1.7-3.2 20.6-19.5 29.4-25.4 4.5-3 11.8-7.4 16.3-9.8l8.3-4.4-3.3-3.2c-3.7-3.6-5-3.8-8.9-1.6zM197.4 37.5c-3.2 2.2-6.5 21.6-4.5 26.8 1.3 3.4 7 6.5 8.2 4.5.7-1 .9-1 .9-.1 0 2.5 6 1.4 9.1-1.6 3.2-3.2 4-8.1 1.3-8.1-.8 0-1.2.4-.9 1 .3.6-.1.7-.9.4-1.9-.7-1.1-2.4 1-2.4 1.3 0 1.2-.4-.1-3-.9-1.7-1.1-3-.6-3 .5 0 1.3.9 1.6 2 1.3 4.1 2.5 1.8 2.5-4.9 0-6.4-.2-7.2-3.1-10-2.5-2.6-3.8-3.1-7.8-3.1-2.5 0-5.6.7-6.7 1.5zm8.8 9.8c-.1 3 .2 5.8.8 6.2.5.3 1 1.1 1 1.8 0 .6-.7.2-1.5-.9-1.3-1.8-1.4-1.6-1.5 2.7 0 4.4-2.1 9.1-3.2 7.3-.6-.9.9-19.8 1.7-22.2.3-.8 1.1-1.2 1.7-1 .9.3 1.2 2.3 1 6.1zM246.2 37c.4 1.2 17.8 9.2 17.8 8.2 0-.4.4-.2.8.4 1.1 1.6 16.1 10.4 17.7 10.4.8 0 1.4.4 1.2.9-.1.5 2.9 3.3 6.7 6.2 13.2 10 28.9 27.5 37.7 41.9 1.8 3 3.6 5.7 3.9 6 .4.3 2.9 5.7 5.8 12.1 5.2 11.8 11.1 29.6 11.8 35.9.3 1.9.9 5.9 1.4 8.9.6 3 1 8.1 1 11.2 0 3.2.4 6 .8 6.3.4.3.4 4.4-.1 9.1-.9 8.7-.5 11.2 1.4 8.5.9-1.4.6-23.3-.4-32.1-2.7-21.6-11.7-47.7-22.9-66.1-17.5-28.6-46-53.1-76.7-65.8-8.3-3.4-8.4-3.4-7.9-2zM156.2 38.7c-2.7.5-4 2.9-2.3 4.6.8.8 1.1.6 1.1-.8 0-1 .3-1.6.6-1.2.3.3.3 1.5-.1 2.8-.4 1.2-1 1.7-1.4 1.1-.3-.5-1.5-1.2-2.6-1.4-1.8-.3-2 .2-1.9 3.9.1 5.3 2.1 7.7 8.8 10.2 5.1 1.8 7.9 5 6.9 7.7-.9 2.4-3.1 1.5-3.8-1.6-.5-2.3-1.2-3-3-3-3.9 0-5.5 1.1-5.5 3.7 0 1.6.4 2.2 1.2 1.7.7-.5.9-.2.5.8-2.3 6.1 14.2 6.3 18.5.3 2.4-3.2-.8-13.5-4.1-13.5-1.2 0-2.1-.4-2.1-.8 0-.5-1.7-1.4-3.9-2-4.5-1.4-6.4-3.3-5.5-5.6.8-2.2 2.5-2 3.1.4.6 2.2 2.8 2.5 6.7 1 2.3-.8 2.4-1.2 1.4-4-1.5-4.4-5.4-5.7-12.6-4.3zM228 45.2c-.8 2.4-1.5 4.7-1.6 5.3 0 .5-.5 1.9-1 3-.4 1.1-2 5.6-3.5 10-2.3 6.8-2.5 8.1-1.2 8.8.8.5 2.1.6 2.9.3.8-.3 1.4-.1 1.4.4 0 2.9 1.9.2 3.7-5.3l2.1-6.2.1 7.2.1 7.1 3.6 1.2c2 .7 3.9.8 4.3.4.7-.9 10.1-28.3 10.1-29.6 0-1-6.3-2.9-7-2.1-.3.5-1.4 3.4-2.4 6.6-1 3.2-2 5.6-2.3 5.3-.4-.3-.5-3.4-.4-6.9.2-6.8-.4-8-5-9.2-2.3-.6-2.7-.2-3.9 3.7zM132.3 46.7c-1.8.9-3.3 2.4-3.3 3.2 0 1.1-.3 1.2-.8.4-.6-.9-1.8-.7-5 .7-4.7 2.1-4.6 1.9-3.2 5.4.8 2.3 1.2 2.5 3.6 1.6 1.5-.6 2.8-.9 2.8-.8.4.5 7.9 17.3 9.2 20.5l1.4 3.2 4-1.6c2.2-.9 4-2 4-2.5 0-.4-2.3-5.9-5-12.1-4.7-10.3-4.9-11.3-3.3-12.4.9-.7 2-1.3 2.4-1.3.4 0 .2-1.4-.4-3-1.3-3.4-1.9-3.5-6.4-1.3z"/><path d="M254.3 64.4c-3.5 6.2-6.3 11.9-6.3 12.5 0 .6-.4 1.1-.9 1.1-1.5 0-2.3 3.3-.9 4.2.7.4 3.6 2.1 6.5 3.8l5.2 3 1.6-3c1.4-2.8 1.4-3-.7-4.1-1.3-.6-2.4-1.3-2.6-1.4-.1-.1 2-4.2 4.9-9.1 8.9-15.4 8.5-14 4-16.4-2.2-1.1-4.2-2-4.3-2-.2 0-3.1 5.2-6.5 11.4zm6.4-.2c-.3.8-.6.5-.6-.6-.1-1.1.2-1.7.5-1.3.3.3.4 1.2.1 1.9zM105.3 61.1c-1.8 1.2-3.3 2.3-3.3 2.5 0 1.5 9.8 15.3 10.5 14.7.4-.5.5-.3.1.4-.5 1 5.9 12.3 7 12.3.3 0 11.3-6.8 12.2-7.6.2-.1-.4-1.4-1.3-2.8-1.4-2-2.1-2.4-3.5-1.6-1 .6-2.3 1-2.8 1-.6 0-4-4.7-7.7-10.5s-7-10.5-7.4-10.5c-.3 0-2.1 1-3.8 2.1zM274.5 72.7c-2.1 5.4-5.5 12-7.6 14.8-2.1 2.7-3.5 5.3-3.3 5.7.3.4 1.7 1.6 3.3 2.7l2.9 2.1 3.3-4.5c2.1-2.7 7.1-6.9 12.7-10.6l9.4-6.1-2.3-2.4c-1.2-1.3-3-2.4-3.9-2.4-2.2 0-5 3.1-5 5.5 0 1.4-.3 1.6-1.1.8-.6-.6-1.8-.9-2.5-.6-1 .4-1.4-.3-1.3-2.3 0-2.5.2-2.6.8-.9.7 1.8 1 1.5 2.9-2.1 2-3.9 2-4.2.4-5.6-5.2-4.3-4.7-4.6-8.7 5.9zM88.3 74.2l-3.2 3.3 5.7 6.3c4.5 4.9 6 6 7.2 5.2 1.9-1.3 3-1.3 3 0 0 .5-1 1-2.2 1-2.1 0-2 .2 1 3.3 3 3.1 4.1 5.7 2.4 5.7-.4 0-3-2.2-5.7-5-2.6-2.7-5.3-4.6-5.8-4.3-.6.3-3.3.5-6.1.4l-5.1-.2 7.5 7.7c4.1 4.1 8.5 8 9.8 8.5 5.1 2 14.2-5.2 14.2-11.3 0-2.2-1.4-4.4-5.7-9.1-3.2-3.4-7.6-8.1-9.8-10.5l-4-4.3-3.2 3.3zM104 90c0 .5-.5 1-1.1 1-.5 0-.7-.5-.4-1 .3-.6.8-1 1.1-1 .2 0 .4.4.4 1zm4.7 8.2c-.3.8-.6.5-.6-.6-.1-1.1.2-1.7.5-1.3.3.3.4 1.2.1 1.9zM176.7 76.7c-3 .3-3.7.8-3.3 1.9.3.9.6 1.9.6 2.3 0 .5 2.1.6 4.8.3 4.6-.4 6.6-1.7 5.5-3.6-.3-.5-.1-.6.5-.2.6.3 1.3.2 1.7-.4.6-1-2-1.1-9.8-.3zM186.8 78.1c-1 1-1.8 2.1-1.8 2.4 0 .3 3.9.5 8.8.5 11 .1 21.3 1.9 32.7 5.8 4.9 1.7 9.3 2.8 9.9 2.5.6-.3.7-.2.3.2-.4.5.7 1.7 2.5 2.6 3 1.6 3.3 1.6 4.6 0 1.2-1.4 1.2-1.4 1 .4-.3 1.5 1.1 2.9 5.2 5.7 3 2 8.8 6.4 12.8 9.7 3.9 3.4 7.2 5.6 7.2 5.1 0-.7.6-.8 1.9 0 3.8 2 3.5 1-.9-3.6-15.5-15.8-39.2-27.8-62.9-31.8-12.6-2.1-19.1-2-21.3.5zM168.8 78.6c-.4.3-2.4.8-4.5.9-8.2.7-26.1 8.2-37.3 15.7-7.7 5.1-14.1 10.8-13.5 11.9.4.5-.1.6-1 .3-1.1-.5-1.4-.2-.9 1.1.5 1.1.2 1.6-.9 1.3-2.3-.5-12.1 11.1-19.2 22.9-2.6 4.3-3.2 6-2.3 7 .8 1 .7 1.2-.5.8-1.1-.5-2.2 1.2-4.6 7.5-5.8 14.9-8.8 31.7-6.7 36.4.7 1.4.6 1.7-.3 1.2-2.3-1.5-.6 22.4 2.4 33.9 4.1 15.9 17.4 41.6 19.7 38.3.6-.9.7-.6.3.9-.5 1.7 1.2 4 9.2 12 5.4 5.4 12.7 11.8 16.3 14.1 6.3 4.2 6.4 4.2 7.2 2.1.5-1.2.7-2.3.6-2.4-10.6-6.5-22.5-17.3-30.1-27.5-2.3-3-4.4-5.7-4.7-6-1.5-1.3-10-19.1-11.5-24.2-1.4-4.3-2.2-5.5-3.4-5.1-1.3.4-1.3.3-.2-.5s1.1-1.9.1-6.1c-1.1-4.5-1.4-5-2.8-3.9s-1.4 1-.7-1.2c.9-2.7 1.1-9.1.6-18.5-.2-3.3.2-9.6.9-14s1.3-9.1 1.3-10.5c.1-1.4.4-2.7.7-3 .3-.3 1.8-4.3 3.4-9 1.5-4.7 4.5-11.7 6.6-15.6 2.7-4.9 3.6-7.5 2.9-8.5-1.4-2.2-1-3.6.5-1.6 1.3 1.7 1.5 1.7 3-.4.8-1.2 1.2-2.7.9-3.2-.3-.6-.1-.7.4-.4 1 .7 2.8-2 2.5-3.6-.1-.4.1-.6.5-.5.5.2 3.5-2.7 6.8-6.2 3.3-3.6 6.5-6.8 7.2-7.3.7-.4 1.8-1.3 2.5-2 2.7-2.7 13.6-9.6 21.3-13.4 8.1-4.1 23-9.3 26.6-9.3 1.1 0 2.2-.7 2.6-1.6.5-1.3.8-1.3 1.5-.2.7.9.8.8.6-.7-.3-2-2.8-3.2-4-1.9zM86 153c0 .5-.2 1-.4 1-.3 0-.8-.5-1.1-1-.3-.6-.1-1 .4-1 .6 0 1.1.4 1.1 1z"/><path d="M78.7 82.8c-3.3 3.5-2.4 5 3.3 5.2 8.5.3 8.4.4 4.9-4-1.8-2.2-3.8-4-4.4-4-.6 0-2.3 1.2-3.8 2.8zM187 83c-.8.5-1.2 1.1-1 1.4.3.2 5.2.6 11 .8 10 .4 29.1 4.3 29.8 6 .2.5.9.8 1.5.8.7 0 4.1 1.4 7.6 3 3.5 1.7 6.7 2.8 7 2.4.9-.9-3.1-3.5-4.6-3-.7.3-1.6 0-2-.7-2-3.2-21.9-9.2-33.8-10.2-3.8-.3-8.6-.8-10.5-1-1.9-.2-4.2 0-5 .5zM180.5 84c-.4.6.5 1 1.9 1s2.6-.5 2.6-1c0-.6-.9-1-1.9-1-1.1 0-2.3.4-2.6 1zM163.5 86c-9.8 2.5-24.8 8.7-26.5 10.9-.3.3-2.2 1.5-4.3 2.6-5.8 3.1-14.8 10.5-14.1 11.6.4.7 1.2.4 2.3-.6 10-9.8 34.9-21.7 50.4-24 5-.8 6.5-2.5 2-2.4-1.6 0-5.9.8-9.8 1.9zM43.6 92.6c-3 2.9-3.8 5.3-2.6 7.5.7 1.1.9 2.3.6 2.6-.3.3-.9-.5-1.4-1.8l-.9-2.3-1.4 2.4c-.7 1.4-1.4 2.7-1.4 3 0 .3-.8 1.6-1.7 3-4.4 6.5-14.8 32.9-14.8 37.4 0 1.2-.4 2.6-.9 3.2-1.5 1.6-4.4 19.2-3.8 22.9.3 2 .2 3.3-.2 3.1-1.1-.7-2.1 16.2-1.4 24.5.5 6.2.8 7 2.5 6.6 1.7-.5 1.7-.3-.2 2-1.9 2.4-1.9 2.8-.5 4.4 1.2 1.2 1.3 1.8.4 2.1-1 .3-.9 2.4.5 9.4 2.2 11.2 6.2 25.2 7.7 27 .6.8.9 1.4.5 1.4-.7 0 2.6 8.4 7.1 18l3.5 7.4 2.4-2.9c1.7-2.1 2.3-3.8 1.9-5.5-.4-1.9-.3-2.1.5-1 .8 1.2 1 1.2 1 .1 0-1.8-5-13.2-6.8-15.3-.8-.9-1.2-2-.9-2.5.2-.4.1-1.7-.4-2.8-.8-2-.8-2-1.4 0-.3 1.2-1.5 2.6-2.6 3.3-1.6 1-2.1 1-2.6-.5-.5-1.1.3-2.4 2.5-4.1l3.1-2.3-1.5-4.2c-2.3-6.4-6.4-27.9-6.4-33.2 0-3.8-.3-4.6-1.5-4.1-4.2 1.7-4.8 1.6-2.3-.4 2.4-1.9 2.7-2.7 2.7-8.8.1-3.7.5-10.3 1-14.7.5-5.1.5-8.5-.2-9.3-.6-.8-.6-1.2.1-1.2.6 0 1.4-1.7 1.7-3.8.4-2 1.6-7.5 2.7-12.2 2.3-9.4 2.3-9.3 1.4-13.5-.6-2.8-.6-2.8.5-.7 1.1 2.1 1.5 1.7 4.4-6.1 4.4-11.2 9.7-21.5 16.1-31.5L56 91h-5.5c-3.5 0-5.9.5-6.9 1.6zM35 118.1c0 .6-.4.7-1 .4-.5-.3-1-1.1-1-1.6 0-.6.5-.7 1-.4.6.3 1 1.1 1 1.6zM25 137c0 .5-.2 1-.4 1-.3 0-.8-.5-1.1-1-.3-.6-.1-1 .4-1 .6 0 1.1.4 1.1 1zm.8 90.5c-.3.3-.9-.2-1.2-1.2-.6-1.4-.5-1.5.5-.6.7.7 1 1.5.7 1.8z"/><path d="M53 100c-2.9 4.7-5.3 9.3-5.3 10.3.1.9-.2 1.5-.6 1.3-1.1-.7-6.1 8.6-6.1 11.3 0 1.1-.4 2.1-1 2.1-.5 0-1 .4-1 1 0 2.4 2.9-.6 5.1-5.3 1.3-2.9 3.6-7.4 5.1-10 1.6-2.7 2.5-5.3 2.2-5.9-.4-.6-.3-.8.3-.5 1.3.8 7.5-8.8 7.1-11-.2-1.1-2.2 1.2-5.8 6.7zM244 98.2c0 .8 2.8 2.9 6.3 4.7 3.4 1.9 6.5 3.9 6.9 4.5.5.8.8.7.8-.1 0-1.1-7.4-6.9-11.7-9.2-1.8-.9-2.3-.9-2.3.1zM64.4 101.5c-1.4 1.4-2.2 3-1.8 3.7.4.6.3.8-.3.5-1.4-.9-4.4 3.7-4.8 7.4-.3 2.1.1 3.2 1.7 4 1.5.8 1.9.8 1.4 0-.4-.6-.3-1.1.2-1.1s1.2.9 1.5 2c.3 1.1 1.2 2 2.1 2 .9 0 1.6.4 1.6.9 0 1.1 8.1 6.4 9.7 6.4.7 0 1.3.4 1.3.8 0 .3 1.2 1.4 2.6 2.4 2 1.3 2.8 1.4 4 .5.7-.7 1.1-1.6.8-2.1-.3-.5-.1-.9.4-.9.6 0 2.4-2.2 4.2-4.9 5-7.9 4.3-9.4-7.5-17.4-5.4-3.7-11-6.7-12.2-6.7-1.3 0-3.5 1.1-4.9 2.5zm1.1 3.5c.3.5.1 1-.4 1-.6 0-1.1-.5-1.1-1 0-.6.2-1 .4-1 .3 0 .8.4 1.1 1zm4.6 4.3c3.4 1.8 8.2 5 9.7 6.4.7.7 2 1.6 2.9 2.1.8.5 1.3 1.6 1.2 2.6-.3 1.3-2 .5-8.6-3.9-4.6-3-8.3-5.2-8.3-4.8 0 .5-.4.1-.9-.7-1.9-2.9.2-3.8 4-1.7zM61 112c0 .5-.4 1-1 1-.5 0-1-.5-1-1 0-.6.5-1 1-1 .6 0 1 .4 1 1zM267.5 118.2c3.6 3.9 9 10.8 11.9 15.2 5 7.6 12.6 24.4 12.6 27.9 0 .8.7 2.1 1.6 2.8 1.5 1.2 1.6 1 .9-2.1-2.9-14.1-16.4-37.3-27.4-47.3-6.9-6.2-6.7-4.1.4 3.5zM308.7 111.7c-.4.3-.7 1.4-.7 2.4 0 1.1-1.4 2.6-3.2 3.5-3 1.6-3.1 1.7-1.2 3 3.7 2.6 4.4 3.5 4.4 6.1v2.6l2.3-2.1c1.3-1.2 3.3-2.2 4.5-2.2 2.1 0 2.6-.9 2.3-3.7-.1-.7.5-2.7 1.4-4.4l1.7-3.1-3.2.7c-2.5.5-3.7.2-5.4-1.4-1.2-1.2-2.6-1.8-2.9-1.4zM112.2 116.3c-2.3 2.3-4.2 4.9-4.2 5.7 0 .7-.3 1-.6.7-.4-.4-2.4 1.7-4.5 4.5-2.2 2.8-3.7 5.4-3.4 5.6.3.3-.2 1-1 1.6-3.8 3-13.2 26.5-13.7 34.7-.2 2.4-.6 4.6-1 4.9-1 .8-2 21.7-1.3 26.3 1.2 6.6 1.8 3.2 2-10.1.2-14.1 2.1-24.8 6.3-35.7 1.5-3.9 2.7-7.5 2.7-8 0-.6.3-1.2.6-1.5 1.4-1.2 7.9-13.3 7.9-14.7 0-.9.3-1.3.6-1 .4.3 2.5-1.7 4.8-4.6 2.2-2.8 5.6-6.5 7.4-8 3.1-2.8 4.1-4.7 2.4-4.7-.4 0-2.7 1.9-5 4.3z"/><path d="M272.9 117.8c.6 1.2 1.6 2.4 2.1 2.7.6.4 3.2 3.9 5.8 7.8 14.1 21 19.5 39.4 19.1 64.7-.2 8 0 15.1.4 15.7.4.6 0 1.3-.8 1.7-.8.3-1.5 1.5-1.5 2.7 0 1.2-1.6 6.9-3.5 12.6-1.9 5.8-3.2 11-2.8 11.5.3.7.1.8-.5.4-.7-.4-2.3 1.6-4.2 5.4-2.5 4.9-2.8 6.4-1.9 8.1l1.1 2.1 1.4-2.1c3.1-4.4 9.3-17.9 11.8-25.6 4.1-12.9 5-19.2 5.1-33.8 0-12.7-.2-14-2-15.5-1.2-1.1-1.9-2.6-1.7-4.1.3-1.9.6-2.1 1.3-1 .7 1.1.9 1 .9-.5 0-3-3.1-14-4.4-15.6-2.1-2.5-3-4.4-1.8-3.6 2.8 1.7-4.4-13.7-11.3-24.4-4.9-7.6-7-9.6-10.9-10.6-2.6-.6-2.7-.5-1.7 1.4zM302 206c0 .5-.4 1-1 1-.5 0-1-.5-1-1 0-.6.5-1 1-1 .6 0 1 .4 1 1zM36.5 132.3c-.9 2.4-1.7 5-1.9 5.7-.2.8-.8 2.8-1.4 4.3-1.4 3.2-1.5 5.1-.5 6.1.6.6 1.8-2.5 5.7-15.7 1.8-5.9.3-6.2-1.9-.4zM46.5 133.4c-.8 2-1.5 4.2-1.5 5 0 .8-.4 1.8-1 2.1-1.9 1.1-1 2.2 3.3 4.1 2.3 1 4.8 2.5 5.6 3.2.7.7 1.8 1.1 2.4.9.6-.2 1.9.5 2.9 1.5 2.2 2.2 3.8 2.3 3.8.3 0-.8.5-1.5 1-1.5s.9.3.9.7c-.4 2.7.5 4.4 3.7 6.2 4.5 2.7 5 2.7 5.9-.7 1.5-5.9 1.4-6.3-1-7.2-2.2-.8-2.4-1.2-1.3-3.5 1-2.2 1.3-2.3 2.7-1.1.9.7 2.1 1.1 2.8.9 1.2-.4 3.8-7.1 3.1-7.9-.4-.4-19.8-4.4-28.1-5.9-3.6-.6-3.8-.4-5.2 2.9zm12.5 2.1c0 1.2-1.9 1.2-2.3 0-.4-.9-.1-1.2.9-.8.7.3 1.4.7 1.4.8zm4.7 5.6c1.5.5 2.1 1.4 1.7 2.3-.5 1.3-1.4 1.1-5.5-.9-2.7-1.4-4.9-2.8-4.9-3.1 0-.6 5.3.4 8.7 1.7zM69 143c0 .5-.2 1-.4 1-.3 0-.8-.5-1.1-1-.3-.6-.1-1 .4-1 .6 0 1.1.4 1.1 1zm-1 9c0 .5-.5 1-1.1 1-.5 0-.7-.5-.4-1 .3-.6.8-1 1.1-1 .2 0 .4.4.4 1zM179.9 136.5c-5.9 1.6-6.9 2.2-6.9 4.3 0 1.4-.2 1.4-.9.3-.8-1.2-1.4-1.2-3.9-.2-3.7 1.5-9.8 7.7-11.1 11.4-1.7 4.5-1.4 13.7.6 15.9 1 1.1 1.2 1.8.4 1.8-.8 0-.7 1 .4 3.6 2.3 5.5 5.2 9 8.8 10.8l3.4 1.6-2.5 4.9c-2.3 4.8-2.4 5.4-1.3 11.8 3.1 18.2 10.7 32.7 17.7 33.7.7.1 1.7.5 2 .9.9.9 13.1.9 16.2.1 1.9-.5 2.2-1.2 1.8-3-.3-1.2-.2-2.5.4-2.9.5-.3 1.2.6 1.6 2 .8 3.1 1.3 3.1 7.7 0 10.1-4.8 15.1-11.7 14.9-20.4-.2-10.1-7.2-30.1-11.8-34.2-1.1-.9-3.6-2.2-5.6-2.8l-3.8-1.3 2.6-3.3c3.4-4.5 4-9.7 1.9-16.7-4.8-16.5-16.1-22.9-32.6-18.3zm17.1 3.1c0 .8-.4 1.4-1 1.4-.5 0-1-.9-1-2.1 0-1.1.5-1.7 1-1.4.6.3 1 1.3 1 2.1zm-18 6.8c0 .3-.4.8-1 1.1-.5.3-1 .1-1-.4 0-.6.5-1.1 1-1.1.6 0 1 .2 1 .4zm-17.5 4.6c.3.5.1 1-.4 1-.6 0-1.1-.5-1.1-1 0-.6.2-1 .4-1 .3 0 .8.4 1.1 1zm23.9 1.5c2 2 5.6 13.7 5.6 18 0 2.1-.6 3.5-1.6 3.9-3.7 1.4-5.3-.4-7.9-8.5-3-9.4-3.1-12.4-.7-13.8 2.3-1.4 2.8-1.3 4.6.4zm-22.4 12c.7.9.8 1.5.2 1.5-.5 0-1.2-.7-1.6-1.5-.3-.8-.4-1.5-.2-1.5s.9.7 1.6 1.5zm32.7 6.7c-.2 1.3-.4.5-.4-1.7-.1-2.2.1-3.2.4-2.3.2 1 .2 2.8 0 4zm11.2 2.8c0 2.3-.1 2.3-.9.5-.5-1.1-.9-2.9-.9-4-.1-1.7.1-1.7.9-.5.5.8.9 2.6.9 4zm-43.9-3c0 .5-.5 1-1.1 1-.5 0-.7-.5-.4-1 .3-.6.8-1 1.1-1 .2 0 .4.4.4 1zm38.4 14.5c.6 5.6.6 5.8-.8 3.5-.9-1.4-1.5-4.8-1.5-7.5 0-6.6 1.4-4 2.3 4zm-19.4 6c0 .5-.5.3-1-.5s-1-2-1-2.5c0-.6.5-.3 1 .5s1 1.9 1 2.5zm15.4.1c1.6 1.6 7.5 20 9.4 29.4.6 3 1.4 6.6 1.7 8l.7 2.5-1.6-2.5c-.8-1.4-1.9-3.4-2.4-4.5-.6-1.1-2-2.1-3.3-2.2-3.2-.3-4.5-2.3-7.8-12.8-4.3-13.4-4.8-16.5-2.6-18.2 2.4-1.7 4-1.7 5.9.3zM182 196c0 .5-.2 1-.4 1-.3 0-.8-.5-1.1-1-.3-.6-.1-1 .4-1 .6 0 1.1.4 1.1 1zm41 6.6c0 .8-.4 1.2-1 .9-.5-.3-1-1.3-1-2.1s.5-1.2 1-.9c.6.3 1 1.3 1 2.1zm-15 11.9c0 .8-.2 1.5-.4 1.5s-.6-.7-1-1.5c-.3-.8-.1-1.5.4-1.5.6 0 1 .7 1 1.5zm-32 9.6c0 .6-.4.7-1 .4-.5-.3-1-1.1-1-1.6 0-.6.5-.7 1-.4.6.3 1 1.1 1 1.6zM322.5 141.6c-.4 1.6-1.1 3.9-1.7 5.1-.8 1.7-.8 2.6.2 3.8.9 1.1 1 1.5 0 1.5-.6 0-1.4-.9-1.7-2-.6-2.2-.6-2.2-2.7-1.4-2.4.9-1.9 2.2 1.4 3.9 2.3 1.2 3.1 2.4 3.6 5.6.6 3.8.8 3.9 2.5 2.3 1-.9 1.6-2.1 1.2-2.7-.4-.7 1.3-.8 5-.4l5.6.7-1.5-3.5c-1.3-3.1-1.3-3.9.1-6.5 2.1-4 2-4.2-2-3.9-2.7.3-4.1-.3-6.4-2.5l-3-2.9-.6 2.9zm5.2 13.6c-.3.8-.6.5-.6-.6-.1-1.1.2-1.7.5-1.3.3.3.4 1.2.1 1.9zM240.8 141.7c-5.5 1.6-5.6 2-2.8 11.3 1.1 3.6 2 7 2 7.7 0 .7-3.9 2.4-8.6 3.9l-8.6 2.6.7 3.5c1 5.4 2.3 8.3 3.8 8.3.7 0 4.6-1.1 8.6-2.5 4.1-1.3 7.7-2.3 8.1-2 .4.2 1.7 3.9 3 8.2 1.2 4.3 2.5 8.1 2.9 8.5.4.4 3.2 0 6.4-.8 5.4-1.6 5.6-1.8 5-4.3-1.1-4.9-2.3-7.2-3.8-7.7-1.1-.5-1.3-1-.5-1.9.6-.7.8-2.4.5-3.7-.6-2.2-.1-2.6 8.5-5.3 6.7-2.2 8.9-3.3 8.5-4.3-.3-.8-1-3.4-1.6-5.8-.6-2.4-1.6-4.4-2.1-4.4-1.9 0-15.3 4.3-16.6 5.3-1 .8-1.6.7-2.2-.3-.5-.8-.7-1.7-.4-2.1.8-1.3-3.9-15.9-5.1-15.8-.5.1-3.1.8-5.7 1.6zm1.8 12.5c1 2 1.2 2.9.4 2.6-.7-.2-1.8-1.8-2.6-3.6-1.6-4 0-3.2 2.2 1zm7.4 1.9c0 .6-.4.8-.9.5-.5-.3-1.4.1-2.2 1-.7.8-2.2 2-3.3 2.5-1.9.9-1.9.9.2-1 1.2-1 2.2-2.3 2.2-2.8s.9-.9 2-1c1.1-.1 2 .3 2 .8zm4.5 4.9c.3.5.1 1-.4 1-.6 0-1.1-.5-1.1-1 0-.6.2-1 .4-1 .3 0 .8.4 1.1 1zm4.5 2.1c0 .6-.4.7-1 .4-.5-.3-1-1.1-1-1.6 0-.6.5-.7 1-.4.6.3 1 1.1 1 1.6zm-20 5c0 .6-.4.7-1 .4-.5-.3-1-1.1-1-1.6 0-.6.5-.7 1-.4.6.3 1 1.1 1 1.6zm3 5c0 .6-.4.7-1 .4-.5-.3-1-1.1-1-1.6 0-.6.5-.7 1-.4.6.3 1 1.1 1 1.6zM30.5 151.2c-.4 1.5-.8 4.2-.8 6-.1 1.8-.6 3.6-1.2 4-.5.4-.6 1-.2 1.4 1.1 1.1 1.7 0 3.2-5.7.9-3.2 1.1-5.8.5-6.8-.7-1.3-1-1.1-1.5 1.1zM131.5 152.9c-1.2.5-2.7 1.6-3.4 2.5-.9 1.1-1.8 1.3-2.5.7-1.6-1.3-2.7-.3-5.1 4.2-1.1 2.1-3.8 5.7-6 8-4 4.1-11.2 10.5-12.1 10.6-.8.2-.6 1.5 1.1 6.3.1.5.3 1.5.4 2.3 0 .9 1.1 1.5 2.4 1.5 1.8 0 1.9-.2.7-1.1-1.2-.8-1.1-.9.6-.4 1.2.3 4.3.1 6.9-.5 3.5-.8 5-.8 5.5 0 .4.7 1.1 1.1 1.6 1.1s.9.5.9 1.2c0 2.2 2.8 9.7 3.6 9.7.4 0 .5.8.2 1.9-.3 1 0 2.2.6 2.5.6.4 1.1 1.9 1.1 3.4.1 1.5.7 4 1.4 5.7l1.3 3 .7-3.8c1-5.2 2.5-4.6 2.4.9 0 3.4-.4 4.4-1.4 4-.9-.4-1.4.2-1.4 1.7 0 1.8.2 1.9 1 .7.9-1.3 1-1.3 1.1 0 .1.8 0 2.7-.1 4.2-.1 1.6.3 2.8.8 2.8 1.1 0 2.2-3.3 2.2-6.8 0-1.2.5-2.2 1-2.2 1.4 0 1.2 8.4-.2 9.8-.7.7-.8 1.2-.4 1.2.5 0 .3.6-.3 1.4-1 1.1-.5 3.8 1.9 12.3 1.8 5.9 3.4 11.1 3.6 11.4.5.9 8.1-1.4 9.5-2.8.6-.6 1.7-.9 2.5-.6.7.3 3.6-.3 6.4-1.2 5.9-2 5.9-1.3 1-16.4-1.5-4.7-3.1-10.1-3.5-11.8-.3-1.8-1.1-3.5-1.6-3.8-.5-.4-.9-1.5-.9-2.6s-2.3-9.5-5.1-18.7-5.5-18.1-6-19.9c-.5-1.8-1.4-3.5-1.9-3.8-.5-.3-.7-1.1-.4-1.8.2-.7-.5-3.9-1.6-7.2-1.2-3.3-2.2-6.9-2.3-8-.2-2.2-3-2.9-6.2-1.6zm-7 12.7c-2.9 2.1-1.2 8.1 2.8 9.9 2.7 1.1 2.8 1.3.7 1-1.4-.2-3-.4-3.6-.4-.6-.1-1.7-2.7-2.4-5.8-1.2-5.5-1.1-5.8.9-7.1 1.1-.8 2.2-2.2 2.2-3.1.1-.9.4-.3.6 1.4.3 2-.1 3.3-1.2 4.1zM137 172c0 .5-.2 1-.4 1-.3 0-.8-.5-1.1-1-.3-.6-.1-1 .4-1 .6 0 1.1.4 1.1 1zm-14.9 12.7c-1.2 2-1.4 1.4-.5-1.2.4-.9.9-1.4 1.1-1.1.3.2 0 1.3-.6 2.3zm6.4-1.7c.3.5.2 1-.4 1-.5 0-1.3-.5-1.6-1-.3-.6-.2-1 .4-1 .5 0 1.3.4 1.6 1zm5.5 3.1c0 2-1.5 2.6-2.5.9-.9-1.5.3-4.3 1.5-3.5.5.3 1 1.5 1 2.6zm5-.5c0 .8-.4 1.2-1 .9-.5-.3-1-1.3-1-2.1s.5-1.2 1-.9c.6.3 1 1.3 1 2.1zm.2 7.3c.1 1.3-.3 2.6-.9 2.8-.9.3-1.3-.7-1.3-3.3 0-4.1 1.6-3.7 2.2.5zm7.8-1.9c0 .5-.2 1-.4 1-.3 0-.8-.5-1.1-1-.3-.6-.1-1 .4-1 .6 0 1.1.4 1.1 1zm-14.5 1c.3.5.1 1-.4 1-.6 0-1.1-.5-1.1-1 0-.6.2-1 .4-1 .3 0 .8.4 1.1 1zm-3.5 4.1c0 1.1-.4 1.7-1 1.4-.5-.3-1-1.3-1-2.1s.5-1.4 1-1.4c.6 0 1 .9 1 2.1zm6.4 4.1c.3 1.3.6 3.6.6 5.2 0 2.4-.2 2.7-1.5 1.6-.9-.7-1.5-2.9-1.5-5.1 0-4.3 1.4-5.2 2.4-1.7zm-5 5.4c.3.8.2 1.2-.4.9-.6-.3-1-1-1-1.6 0-1.4.7-1.1 1.4.7zm31.1 34c-.2 1.1-.4 2.3-.5 2.9-.2 1.2-2.8-5.5-2.9-7.4-.1-1 .5-.9 1.8.6 1.1 1.1 1.8 2.9 1.6 3.9zm-18-.6c.3 1.1.4 2.9 0 3.9-.4 1.3 0 2.3 1.2 3 2.5 1.4.9 2.5-1.6 1.1-1.7-.8-2.1-2-2.1-5.5 0-4.6 1.4-6 2.5-2.5zm8.7 3.5c-.5 1.8-1.1 2.5-1.6 1.7-.4-.6-.2-2.1.4-3.3 1.5-2.8 2.1-2 1.2 1.6z"/><path d="M27.3 167.7c-.4 2.1-.8 12.8-.8 23.8 0 17.1.4 21.6 2.4 31 1.3 6 2.8 11.9 3.4 13 .6 1.1 1.1 2.6 1.2 3.4 0 .8.6 1.5 1.3 1.7.7.1.8 0 .2-.3-.5-.2-.8-.9-.4-1.4.3-.5-.4-4.2-1.4-8.2-1.1-3.9-2.6-10.6-3.2-14.7-1.4-8.5-2.8-37.2-1.9-38 .3-.3.9-3.3 1.2-6.7.7-6.9-.7-9.5-2-3.6zM294.8 169.1c-.2.7 0 3.6.4 6.4 1.2 6.6 1 24.4-.3 32.5-1.5 9-5.5 21.1-10 30.2-4.3 8.5-4.4 8.8-2.9 8.8 1.2 0 7.1-11.5 6.3-12.3-.3-.3.2-1.3 1.1-2.2.9-.9 1.4-2.1 1.1-2.6-.4-.5-.2-.9.3-.9 1.1 0 4.8-12.3 6.3-21.4 2-12.1.1-45.6-2.3-38.5zM328 177.2c0 1.5-.6 3.3-1.3 4-.8.7-1.2 1.9-.9 2.6.2.6-.1 1.2-.7 1.2s-1.1-.4-1.1-1c0-.5-.7-.7-1.6-.3-1.2.4-.8 1 1.5 2.4 2.4 1.4 3.1 2.6 3.1 4.9 0 2 .4 2.9 1.1 2.5.6-.4.8-2 .4-3.8-.6-3-.5-3.1.9-1.3.9 1.1 3.1 1.9 5.6 2.1l4.1.3-1.6-2.4c-1.4-2.2-1.4-2.7 0-5.4 2-3.9 2-4-1.6-3.3-2.6.5-3.5.1-5.5-2.3l-2.3-2.9-.1 2.7zM47.9 189.8c-.1.7-.3 1.6-.4 2.2-.1.5-.3 1.4-.4 1.9 0 .5-1.4 1.4-3.1 2.1-3.1 1.3-3.3 3.4-.2 2.3.9-.3 1.4-.3 1 .2-.4.4-.1 1.4.7 2.2.8.8 1.5 2.5 1.5 3.9 0 2.9 2 3.2 2.7.3.5-1.8 1.1-1.9 4.4-1.4 2.6.4 3.9.3 3.9-.4 0-.6-.4-1.1-1-1.1-1.5 0-1.2-3.8.5-6.4 1.5-2.2 1.4-2.3-1.6-2.4-1.8 0-4.2-1-5.5-2.3-1.4-1.3-2.5-1.7-2.5-1.1zm4.1 5c0 .4-.9.8-1.9.8-1.1 0-1.7-.4-1.5-.8.3-.4 1.2-.8 2-.8s1.4.4 1.4.8zm.8 4.7c-.3.3-.9-.2-1.2-1.2-.6-1.4-.5-1.5.5-.6.7.7 1 1.5.7 1.8zM84.3 210.5c.2 2.6.7 4.9 1.1 5.2 1.2 1.3 1.6-.5 1-5-.9-6.1-2.8-6.2-2.1-.2zM351.5 210.3c-.4 2.4-.8 6.3-.8 8.5-.1 2.3-.5 4.2-.8 4.2-.4 0-.9 1.3-1.2 2.9-.3 1.6-.9 4.1-1.3 5.6-.5 2-.3 2.6.6 2.3.7-.2 1.4-1.1 1.6-1.9.1-.7.9-4.3 1.7-7.9 2.3-9.8 3-16.7 1.8-17.4-.6-.4-1.2 1.2-1.6 3.7zM86 218.3c0 2.5 4.2 13.7 5.2 13.7.5 0 .7.4.3 1-.8 1.2 3.6 9.8 9.8 19 5.4 8 21.9 25 24.3 25 .8 0 1.4.4 1.4.8 0 .8 5.3 4.2 6.5 4.2 1.7 0-.6-2.2-8.2-7.9-16.1-12.1-28.9-30.1-35.4-49.8-2.2-6.7-3.9-9.3-3.9-6zM50.6 222.5c-.3.9-.6 2.4-.6 3.4 0 1.9-2.8 4.6-4.9 4.6-2.8 0-2.1 2.2 1.4 3.8 3.2 1.5 3.5 2.1 3.5 5.8v4.1l3.9-3.5c2.1-1.9 4.8-3.8 6-4.2 1.6-.5 2-1.2 1.6-2.6-.4-1.1 0-3.1.9-4.4 2.4-3.6 2-4.4-2-3.8-2.9.5-4 .1-6.3-2.1-2.4-2.3-2.9-2.5-3.5-1.1zm2.9 3.5c.3.5.1 1-.4 1-.6 0-1.1-.5-1.1-1 0-.6.2-1 .4-1 .3 0 .8.4 1.1 1zM307 223.3c0 .7.5 1.8 1.2 2.5 1.2 1.2 1 1.3-1.4 1.6-2.2.2-1.4 2.7 1.4 4.4 3.3 2 4.7.9 2.9-2.1-1.1-1.8-1.1-2 0-1 1.9 1.9 2.9 1.6 2.9-.7 0-1.2-1-2.5-2.5-3.2-1.4-.6-2.5-1.5-2.5-2 0-.4-.4-.8-1-.8-.5 0-1 .6-1 1.3z"/><path d="M314.5 230c-.3 1.1-.3 2.5.1 3.1.4.7.3.9-.4.5-.6-.3-1.3-.2-1.7.4-.3.5-.1 1 .4 1 .6 0 1.1.4 1.1 1s-.9.6-2.6 0c-4.8-1.9-8.4-1.3-9.5 1.7-.5 1.4-.8 3.2-.5 4 .7 1.7 6.3 1.7 6.9 0 .4-1 .6-1 .6 0 .1.9 2 1.3 6.1 1.3 3.5 0 8.5.9 11.7 2 3.2 1.1 5.8 2 5.9 2 .4 0 3.4-6.3 3.4-7.1 0-.5-1.8-1.3-3.9-1.9-2.2-.6-6.1-2.6-8.8-4.5-7.9-5.7-8.1-5.8-8.8-3.5zm7.5 5c0 .5-.5 1-1.1 1-.5 0-.7-.5-.4-1 .3-.6.8-1 1.1-1 .2 0 .4.4.4 1zm-10 3.7c0 .5-.5 1.5-1 2.3-.7 1.2-.9 1-.7-.8.1-1.9 1.7-3.3 1.7-1.5zm18.4 4.2c.9 1.2.8 1.2-1.1.2-2.6-1.3-2.6-1.3-1.6-3.8.7-1.7.8-1.7 1.1.2.2 1.1.9 2.6 1.6 3.4zM345.7 237c-.3 1.3 0 2 .9 2 1.5 0 1.9-2.6.5-3.4-.5-.3-1.1.3-1.4 1.4zM62 239c0 .5.5 1 1 1 .6 0 1-.5 1-1 0-.6-.4-1-1-1-.5 0-1 .4-1 1zM345.2 241.2c-.7.7-1.2 1.7-1.2 2.4 0 1.2-5.2 13-9.6 21.8-1.4 2.7-2.1 5.3-1.7 5.7 1.1 1.1 11.7-20.7 10.8-22.1-.3-.5-.2-1 .3-1s1.4-1.8 2-4c1.1-4.4 1.1-4.5-.6-2.8zM34 242.5c0 2.9 13.2 30.7 16.4 34.5.7.8 1.6 2.3 1.9 3.3.4 1.1 1.2 1.5 1.8 1.1.8-.4.9-.3.5.5-1.4 2.2 15.8 22.6 27.4 32.6 5.3 4.6 11.7 9.5 12.4 9.5 1.9 0-.2-2.4-6.6-7.8-7.9-6.6-27.5-26.2-26.1-26.2.2 0-.8-1.7-2.4-3.8-6.7-8.5-16.3-26-19.8-35.5-.9-2.6-2.3-5.3-3-6.1-.8-.7-1.1-1.6-.8-2 .4-.3.1-.6-.5-.6-.7 0-1.2.2-1.2.5zM295.1 251.1c-2.4 4.2-1.9 5.8 1.7 5.9.6 0 2.1.9 3.2 2 2.4 2.4 5 2.6 5 .4 0-.9.9-1.8 1.9-2.1 2.9-.7 3.3-3.1.8-4.4-1.2-.7-4-2.2-6.3-3.5l-4-2.4-2.3 4.1zM275.2 254c-7.9 11.6-26.8 26.8-41.1 33.2-3.9 1.7-7.1 3.5-7.1 4 0 2.4 17.6-6.2 27.1-13.3 11.4-8.5 29.7-29 25.7-28.9-.7 0-2.8 2.3-4.6 5z"/><path d="M280.3 253.9c-.6 1-3.2 4.4-5.8 7.5-2.5 3.1-4.3 6.2-3.9 6.8.4.6.1.9-.7.6-.8-.3-3.7 1.6-6.6 4.2-6.9 6.3-18 13.5-27.3 17.8-8.9 4.1-8.2 3.5-7.4 5.6.8 2.2 1.5 2.1 10.1-1.9 15.5-7.2 31.1-19.5 41.6-32.9 3.7-4.8 4.4-6.3 3.6-7.8-1.2-2.3-2.1-2.3-3.6.1zM66.5 257.2c-.6 1.9-2 3.7-3.2 4.3-3 1.3-2.9 2.3.2 3.1 2.1.5 2.5 1.2 2.5 4 0 3.9.9 4.3 3.4 1.5 1.4-1.5 2.6-1.8 5.3-1.4 3.3.6 3.5.5 2.4-1.5-.6-1.1-1.6-2.4-2.2-2.7-.7-.5-.3-1.4 1-2.6 3-2.8 2.6-3.9-1.4-3.9-2.4 0-3.7-.6-4.5-2-1.5-2.8-2.4-2.5-3.5 1.2zM309.2 258.7c-2.5 3.8-1.9 5.6 2.1 6.9 1.2.4 3.4 1.5 4.9 2.5 3.5 2.5 4.5 2.4 5.3-.9.6-2.3.8-2.4 1.4-.9.6 1.7.8 1.6 1.9-.8 1-2.1 1-3.1.1-4.1-.7-.9-.8-1.4-.1-1.4.6 0 1.2.6 1.4 1.2.3.8.9.5 1.6-.9 1.1-2 .9-2.4-1.8-3.8-2.9-1.5-3.1-1.5-3.9.8-1.3 3.2-4.5 4-6.2 1.5-2.7-3.8-4.2-3.8-6.7-.1zm5.8 5.4c0 .5-.4.9-1 .9-.5 0-1-.7-1-1.6 0-.8.5-1.2 1-.9.6.3 1 1 1 1.6zM286.4 264.1c-1.9 2.1-1.9 2.1 3.6 7.1l5.5 4.9-3.9-1.6c-2.2-.8-4.6-1.3-5.3-1.1-.7.3-1.3.1-1.3-.4s-.9-1.2-2.1-1.5c-2.3-.8-5 2-4.2 4.2.4.9 0 1.1-1.3.6-1.8-.6-1.8-.6 0 1.5 1 1.2 2.3 1.9 2.7 1.6.5-.3.9-.1.9.4s2.7 3.3 6.1 6.2c4.9 4.3 6.3 5 7.1 3.9.8-1.1.9-1 .4.3-.3 1.2.7 2.7 3.1 4.7l3.6 2.9 2.5-3c2.2-2.6 2.4-3.2 1.1-4.2-4-2.9-9.3-7.6-8.7-7.6.4 0 1.8.4 3.1.9 2.2.9 1.8-.2-3.7-10.5-3.3-6.3-6.3-11.4-6.7-11.4-.3 0-1.4 1-2.5 2.1zM294.1 266.7c1 2 2.7 4.6 3.8 5.7 1 1.2 2.8 3.9 3.9 6.1 1.2 2.2 3.2 5.3 4.6 7l2.5 3 2.6-2.9c1.4-1.6 2.5-3.2 2.5-3.6 0-.7-11.9-11.1-19.6-17.2l-2.2-1.8 1.9 3.7zM41 271.2c-.7 1.2-2.1 3.2-3 4.3-1.8 1.9-1.8 2.1.7 6.2 1.4 2.4 2.9 4.3 3.4 4.3s.9.6.9 1.4c0 2.2 11.2 16.8 19.8 25.8 11.1 11.6 27.1 24.3 28.6 22.7.3-.3.9-2.3 1.4-4.6l1-4.2-8.2-6.4c-4.4-3.6-11.4-9.9-15.5-14.1-4-4.2-7.7-7.6-8.2-7.6-.5 0-.9-.5-.9-1.1 0-.6-2.2-4.2-5-7.9-2.7-3.8-6.9-10.1-9.4-14-4.3-6.9-4.5-7.1-5.6-4.8zm9.7 15.4c-.9.9-2.7-.6-2.7-2.2 0-1.3.2-1.3 1.6.1.9.9 1.4 1.8 1.1 2.1zm-.3 3.9c.3.9 0 1.5-.9 1.5s-1.2-.6-.9-1.5c.4-.8.7-1.5.9-1.5.2 0 .5.7.9 1.5zM58 294c0 .5-.2 1-.4 1-.3 0-.8-.5-1.1-1-.3-.6-.1-1 .4-1 .6 0 1.1.4 1.1 1zm30 36c0 .5-.2 1-.4 1-.3 0-.8-.5-1.1-1-.3-.6-.1-1 .4-1 .6 0 1.1.4 1.1 1zM328.9 275.2c-.7 1.8-1.9 3.6-2.5 4.1-.7.4-1.1 1.4-.8 2.2.4.9 0 1.5-.7 1.6-1.7 0-7.9 8.3-7.9 10.5 0 .8-.4 1.3-.9.9-.5-.3-1.3 0-1.6.6-.5.7 0 1 1.1.7 2-.4 15.7-18.5 14.9-19.8-.3-.4.2-1.1 1.1-1.4.8-.3 1.2-1 .9-1.6-1.1-1.8-2.2-1.1-3.6 2.2zM135 282.7c0 .7 3.8 3.1 8.4 5.3 9.1 4.3 10 4.6 9.4 3-.5-1.7-17.8-9.7-17.8-8.3zM107.6 284.9c-1.4 1.5-2.3 3.1-1.9 3.6.5.4.3.5-.3.2s-5.1 3.2-10 7.8l-8.9 8.4 3 2.5c3.5 2.9 4.8 3.2 6.5 1.1.7-.8 1.8-1.5 2.5-1.5s2.2-1.9 3.3-4.3c1-2.3 2.4-5.3 3.1-6.7l1.1-2.5-.6 2.5-.6 2.5 3.1-2.9c1.7-1.6 3.4-2.6 3.8-2.3.3.4.2.7-.3.7s-2.3 2.2-3.9 4.9c-1.6 2.8-3.2 4.8-3.7 4.5-.4-.3-1.3.7-1.8 2.3-.6 1.5-1.5 3.6-2 4.5-1.7 2.9-1.2 4.6 2.1 6.9 2.6 1.8 3.3 1.9 4 .8 2.2-3.3 11.8-21.5 12.1-22.9.2-.8 1-2.1 1.8-2.8 1.3-1 1-1.7-2.5-4.7-6.3-5.6-6.9-5.8-9.9-2.6zM266 284.7c-.8.3-3 1.9-4.7 3.6-4.8 4.5-4.5 8.3 1.4 16.6 6 8.3 9.8 12.1 12.4 12.1 3.3 0 8.5-2.6 10.7-5.5 3.8-4.8 2.9-8.2-4.2-17.7-3.6-4.7-7.2-8.8-8.1-9.2-1.9-.7-5.4-.7-7.5.1zm4.4 9.8c1.5 2 3.2 3.2 3.8 2.9.7-.4.8-.2.4.5-.4.6.8 3.3 2.9 6 2.3 3.3 3.2 5.2 2.4 5.6-1.3.9-1.5.8-8.8-9-5.4-7.3-6.4-9.5-4.2-9.5.5 0 2.1 1.6 3.5 3.5zm-1.9 7.5c.3.5.2 1-.4 1-.5 0-1.3-.5-1.6-1-.3-.6-.2-1 .4-1 .5 0 1.3.4 1.6 1zM133.6 287.6c-.3.9-.6 1.7-.6 2 0 .8 7.8 4.3 8.4 3.7.3-.4.6-.2.6.4 0 .9 11.7 6.3 13.5 6.3.3 0 .5-1 .5-2.3 0-1.6-.6-2.3-2-2.4-1.1-.1-2.7-.9-3.5-1.7-.9-.8-3.2-1.8-5.3-2.2-2-.4-5.1-1.8-6.8-3.1-3.7-2.7-4-2.8-4.8-.7zM149 294c0 .5-.2 1-.4 1-.3 0-.8-.5-1.1-1-.3-.6-.1-1 .4-1 .6 0 1.1.4 1.1 1zM154.5 292c-.3.5.1 1 .9 1 .9 0 1.6-.5 1.6-1 0-.6-.4-1-.9-1-.6 0-1.3.4-1.6 1zM217.1 293.1c-8.9 2.5-24.6 4.1-33.3 3.4-7.2-.7-20.4-3-23.5-4.2-1.1-.4-1.4-.2-1.1.8.7 2.1 13.8 4.8 25.6 5.5 15.3.7 39.2-3 39.2-6.2 0-.8-.1-1.3-.2-1.3-.2.1-3.2 1-6.7 2zM220 296.7c-2.5.8-5.1 1.5-5.9 1.7-.8.1-1.8 1.1-2.2 2.2-.7 1.7-.8 1.7-.8.1-.1-1.8-1.9-2-6.1-.7-1.8.6-2 .8-.7.9 1 .1 1.6.5 1.2 1-.3.5 0 1.3.6 1.7.6.3 1.5 0 2-.7.5-.8.9-.9.9-.3 0 .6 1.3.9 3 .6 1.8-.3 3-1 3-1.9 0-1.2.3-1.3 1.3-.5 2 1.7 9.7-.6 9.7-2.9 0-2.6-1-2.8-6-1.2zM128.3 297.7c-.4.9-.1 1.9.5 2.1 1.6.5 1.5 2.3-.3 6.3l-1.6 3.4.6-4.3c.3-2.3.1-4.2-.3-4.2-.6 0-9.3 17.3-12 24-.1.4 1.1 1.3 2.8 2 2.5 1 3.3 1 4.7-.1 1.5-1.2 1.6-1.2 1 .4-.5 1.4.2 2.2 3.6 3.7 6 2.7 8.2 1.8 11.2-4.5 1.4-3 2.5-6.1 2.5-6.9 0-.9.9-2.5 1.9-3.5 2.1-2.1 3.7-8.1 2.8-10.5-.7-1.9-6.8-5.7-12.5-7.9-4-1.6-4.3-1.6-4.9 0zm8.7 8.8c0 .9-.9 3.4-2.1 5.6-1.1 2.3-1.8 4.7-1.5 5.5.3.8.2 1.3-.2 1-.5-.3-1.6 1-2.5 2.9-.9 1.9-2.3 3.5-3.2 3.5-.8 0-1.5-.2-1.5-.5s2-4.8 4.4-10c4.1-8.8 6.6-11.8 6.6-8zm-10.8 10c-.9 2.8-1.8 4.3-2 3.3-.3-1.7 2.5-9.4 3.3-8.7.2.3-.4 2.7-1.3 5.4zm12.5.7c-.3.7-.5.2-.5-1.2s.2-1.9.5-1.3c.2.7.2 1.9 0 2.5zM158.6 296.7c-.3.4-.6 1.4-.6 2.4 0 1.4 1.6 2.1 7.3 3.3 12 2.5 13.5 2.6 14.1 1.3.3-.9.5-.9.5 0 .1.9 2.5 1.3 8.7 1.3 5.4 0 8.3-.4 7.9-1-.3-.6-.1-1 .4-1 .6 0 1.1.4 1.1 1 0 1.2 5.7 1.3 6.4.1.3-.5-.5-1.6-1.7-2.4-3-1.9-15.7-1.2-15.7.9 0 .8-.5 1.4-1.1 1.4-.6 0-.9-.7-.6-1.5.6-1.4-2.9-2.5-7.3-2.4-.8.1-3.9-.4-6.9-1-3-.6-5.6-.9-5.9-.6-.3.3-1 .1-1.6-.4-1.7-1.3-4.3-2-5-1.4zM306.5 304.1c-22.1 22.6-50.9 38.3-83.2 45.5-4.6 1-8.3 2.2-8.3 2.7s1.5.7 3.3.3c1.7-.3 4.7-.8 6.6-1.1 1.9-.3 3.8-.8 4.3-1.1.4-.3 2.1-.8 3.6-1 5-.9 22.7-7.3 23-8.4.2-.5 1.3-1 2.3-1 2.8 0 7.5-2.6 8.3-4.5.3-.9 1-1.3 1.6-1 .5.3 1 .2 1-.4 0-.6.6-.8 1.3-.5 3.8 1.4 43.8-30.8 42.6-34.4-.2-.7-2.9 1.3-6.4 4.9z"/><path d="M230 304.3c-2.6.9-3.4 1.8-3.3 3.2.2 1.1.5 3.8.8 6l.5 4-1.4-3c-.9-1.7-1.5-3.8-1.6-4.8 0-2.6-1.7-2.1-2.4.8-.7 2.8 1.3 8.3 3.7 10.4 1.5 1.2 1.7 1.1 1.8-1 .1-2.3.1-2.3 1 .3.8 2 1.9 2.8 4.9 3.3 4.3.7 7.3 3.5 6.8 6.2-.5 2.6-2.1 2.2-3.6-1-.7-1.5-1.7-2.7-2.2-2.7-2.3 0-4 1.4-4.1 3.4-.1 1.6-.2 1.7-.6.3-.2-.9-.9-1.7-1.4-1.7-1.1 0-1.1 0 .2 3.9.8 2.2 1.4 2.9 1.9 2.1.6-.9 1-.6 1.5.9 1.7 5.4 17.5 0 17.5-6.1 0-1-.4-1.8-.9-1.8s-.7-.9-.4-2c.8-2.9-4.5-7.7-9.3-8.5-7.1-1.1-8.4-2.1-8.2-5.9.1-2.9.3-3.2 1.5-2.1.7.8 1.3 1.8 1.3 2.4 0 1.8 2 2.3 5.5 1.1 4-1.3 4-1.2 1.9-5.2-1.1-2.1-1.8-2.7-2.4-1.9-.5 1-.9.9-1.3-.3-.7-1.9-2.9-1.9-7.7-.3zm5.7 26.3c.3.8.1 2-.4 2.5-.7.7-1.2.2-1.5-1.5-.6-2.8.9-3.6 1.9-1zM153.4 310.7c-.8 4.8-.9 5.1-3 14.4-.9 4.2-1.4 8.8-1 10.3.9 3.7 6.1 6.6 11.7 6.6 4.4 0 7.7-1.8 6.2-3.3-.3-.4.1-.7.9-.7 1.5 0 1.8-.7 3.3-10.3.3-1.2 1.2-5.3 2.1-9 .9-3.7 1.4-7 1.1-7.3-.3-.3-2.3-.7-4.5-1-3.8-.3-4.1-.2-4.7 2.6-.4 1.6-.3 3.5.1 4.1.3.6.1 1.5-.6 1.9-.7.4-1.3 2.6-1.4 4.8 0 2.2-.4 3.8-.8 3.5-.5-.2-.8.3-.8 1.1 0 .9.5 1.6 1 1.6.6 0 1 .4 1 1 0 .5-.7 1-1.5 1s-1.5.9-1.5 1.9c0 1.1-.5 2.3-1 2.6-1.8 1.1-2.2-2.2-1.1-7.7.6-2.9 1.3-6.3 1.5-7.4.3-1.2.9-3.9 1.5-6 1.3-4.8 1.4-6.7.2-6-.5.4-1.1.2-1.3-.3-.1-.5-1.7-1.2-3.5-1.5-3.1-.7-3.2-.6-3.9 3.1zM211.2 309.7l-4.3.4.7 5.5c.4 3.4.3 5.4-.4 5.4-.6 0-1.3-2.3-1.7-5-.6-4.4-1-5-3-5-1.3 0-2.6.4-3 1-.3.5-1.1.7-1.9.4-.9-.3-1.1.3-.8 2.6.4 2.5.9 3 3.3 3 1.6 0 2.9.3 2.9.7 0 .5.7 6.3 1.6 13l1.7 12.3 4.1-.6c2.2-.4 4.3-.8 4.5-1.1.4-.3-1-12.5-2.6-22.6-.5-3.5-.4-3.7 2.1-3.7 2.3 0 2.6-.4 2.6-3.5 0-1.9-.3-3.4-.7-3.3-.5.1-2.7.3-5.1.5zm-.2 14.9c.6 1.4 1 3.5 1 4.6 0 2-.1 2-2.5-.4-1.6-1.7-2.2-3.1-1.8-4.6.7-2.9 2.1-2.8 3.3.4zm2 10c0 .8-.4 1.2-1 .9-.5-.3-1-1-1-1.6 0-.5.5-.9 1-.9.6 0 1 .7 1 1.6zm-5.3 3.6c-.3.8-.6.5-.6-.6-.1-1.1.2-1.7.5-1.3.3.3.4 1.2.1 1.9zM181.2 327.7c0 10.5.4 16 1.2 16.5 1.7 1.1 12.4.9 13.1-.2.3-.6.1-1-.4-1-.6 0-1.1-.5-1.1-1.1 0-.5.5-.7 1-.4.6.3 1-.3 1-1.4 0-1.7-.6-2.1-3-2.1-2.9 0-3-.1-3-5.1 0-3.1-.6-5.6-1.5-6.5-.8-.9-1.5-2.1-1.5-2.7 0-.7.7-.4 1.4.6 1.2 1.6 1.4 1.6 2 .1.3-.8.6-4 .6-7V312h-9.9l.1 15.7zM186 316c0 .5-.5 1-1.1 1-.5 0-.7-.5-.4-1 .3-.6.8-1 1.1-1 .2 0 .4.4.4 1zM96 324.4c0 1.3 11.1 8.6 19.8 13 2.8 1.5 3.2 1.5 3.2.1 0-.8-.3-1.4-.7-1.3-.5.1-1.9-.5-3.3-1.3-5.7-3.7-16.6-10.6-17.7-11.3-.8-.4-1.3-.2-1.3.8zM120.6 338.9c-.6.8 4.3 3.5 5.1 2.8.5-.6-2.6-3.7-3.7-3.7-.5 0-1.1.4-1.4.9zM127 341.5c0 .8.2 1.5.4 1.5s3.3 1.1 7 2.5c4.9 1.8 6.6 2.1 6.6 1.2 0-.8-1.5-1.8-3.2-2.4-1.8-.6-5-1.8-7-2.7-3.3-1.4-3.8-1.4-3.8-.1zM143 347c0 1.2 5 3.4 5.8 2.5.8-.8-.9-2.2-3.5-3-1.4-.4-2.3-.2-2.3.5zM150.2 349.1c.6 1.9 10.8 4.2 10.8 2.4 0-.7-1.3-1.5-2.9-1.8-1.6-.3-4.1-.9-5.6-1.3-2.1-.5-2.7-.4-2.3.7zM162.6 351.8c-.3.5 0 .9.7 1 .7.1 3.9.6 7.2 1.1 7 1.1 29.7 1.4 37.3.5 2.9-.4 5.2-1.2 5.2-1.8 0-.9-1.9-1-6.7-.5-10.2 1.2-23.9 1.1-32.3 0-9.3-1.3-10.7-1.3-11.4-.3z"/></svg>