<?xml version="1.0" standalone="no"?>
<!DOCTYPE svg PUBLIC "-//W3C//DTD SVG 20010904//EN"
 "http://www.w3.org/TR/2001/REC-SVG-20010904/DTD/svg10.dtd">
<svg version="1.0" xmlns="http://www.w3.org/2000/svg"
 width="380.000000pt" height="380.000000pt" viewBox="0 0 380.000000 380.000000"
 preserveAspectRatio="xMidYMid meet">

<g transform="translate(0.000000,380.000000) scale(0.100000,-0.100000)"
fill="#000000" stroke="none">
<path d="M1650 3644 c-52 -8 -96 -18 -98 -23 -2 -6 -10 -7 -18 -4 -8 3 -22 2
-31 -2 -10 -4 -25 -9 -33 -10 -53 -7 -80 -18 -80 -33 0 -13 -2 -14 -8 -4 -7
10 -15 10 -36 2 -15 -5 -25 -14 -22 -19 3 -4 -5 -6 -18 -4 -31 6 -69 -43 -45
-58 11 -7 11 -9 -3 -9 -13 0 -18 8 -18 25 0 30 2 30 -49 7 l-40 -19 34 -33 34
-33 10 24 c10 24 10 24 10 2 1 -13 6 -23 11 -23 6 0 11 10 11 23 1 17 2 18 6
4 3 -10 10 -16 16 -13 7 2 29 10 49 17 27 9 35 16 30 28 -5 13 -3 14 10 3 16
-13 48 -7 48 10 0 5 3 7 8 5 12 -8 116 14 141 30 18 11 22 12 16 2 -3 -8 0 -6
8 4 9 10 17 13 19 7 2 -7 24 -8 73 0 108 15 352 12 471 -6 99 -16 106 -16 124
1 21 19 28 7 9 -12 -9 -9 0 -14 32 -23 87 -22 176 -54 257 -91 45 -21 82 -33
82 -26 0 6 6 3 13 -6 16 -22 147 -98 157 -92 5 3 11 -3 14 -12 4 -10 30 -34
58 -53 29 -19 96 -77 150 -129 54 -51 98 -87 98 -80 1 8 7 1 14 -16 7 -16 35
-58 62 -92 27 -34 66 -89 87 -122 25 -41 44 -61 56 -61 11 0 23 -5 27 -11 4
-8 0 -9 -15 -4 -11 3 -21 4 -21 1 0 -18 88 -175 95 -169 4 4 5 2 1 -5 -4 -7 2
-38 14 -70 34 -91 82 -281 87 -347 2 -33 8 -64 12 -68 4 -4 6 -52 4 -107 -4
-93 -3 -99 14 -94 17 5 17 5 1 -9 -12 -9 -18 -29 -18 -58 0 -24 -5 -73 -10
-109 -6 -45 -6 -68 2 -77 8 -10 7 -17 -5 -26 -16 -13 -55 -149 -52 -185 1 -12
-2 -22 -5 -22 -4 0 -22 -37 -40 -82 -18 -46 -50 -116 -71 -156 -23 -43 -36
-79 -32 -89 4 -10 2 -14 -5 -9 -6 4 -28 -19 -53 -56 -23 -35 -62 -89 -86 -120
-24 -31 -43 -61 -43 -67 0 -6 -3 -10 -7 -9 -5 1 -50 -40 -101 -90 -51 -51 -97
-92 -102 -92 -6 0 -10 -7 -10 -15 0 -8 -3 -14 -7 -13 -5 2 -56 -29 -115 -67
-107 -69 -108 -70 -104 -105 5 -34 5 -35 -7 -7 -6 15 -14 27 -18 27 -4 0 -45
-18 -91 -39 -126 -60 -256 -102 -400 -131 -52 -10 -58 -14 -58 -37 0 -21 -2
-24 -15 -13 -8 7 -15 9 -15 4 0 -5 -7 -1 -15 10 -11 15 -23 17 -72 12 -32 -3
-84 -5 -115 -6 -50 0 -57 -2 -52 -17 5 -16 4 -16 -8 -2 -7 9 -25 19 -40 22
-23 6 -27 5 -21 -10 5 -17 5 -17 -8 -1 -9 11 -36 18 -79 22 -36 3 -114 17
-175 31 -67 15 -111 21 -113 15 -2 -5 -8 -10 -13 -10 -4 0 -6 6 -3 14 3 9 -18
21 -73 41 -95 33 -252 110 -324 159 l-54 36 -12 -47 c-15 -57 -12 -61 73 -108
297 -166 561 -237 884 -238 185 0 240 7 240 34 0 10 7 19 15 19 8 0 15 -7 15
-15 0 -9 9 -15 23 -15 59 0 362 90 437 130 11 6 20 18 20 28 0 14 2 14 9 3 8
-12 14 -11 38 4 15 11 33 20 40 21 16 3 126 69 186 112 l48 35 -22 23 c-18 19
-20 27 -11 36 9 9 12 9 12 0 0 -6 7 -9 16 -5 13 5 15 2 9 -15 -10 -33 11 -27
64 15 66 55 171 154 171 163 0 3 18 25 39 48 40 42 114 141 147 199 62 104 93
160 96 173 2 8 6 17 9 20 7 5 59 132 63 153 2 7 8 25 14 40 20 47 24 75 13 81
-5 4 -14 -2 -20 -11 -9 -16 -10 -16 -11 -2 0 18 26 33 40 24 12 -8 47 155 59
270 5 55 10 156 10 225 1 113 -1 123 -14 106 -14 -19 -20 -44 -16 -73 1 -7 -3
-13 -9 -13 -16 0 -10 36 17 110 18 45 4 161 -34 290 -15 50 -17 53 -24 30 -6
-19 -7 -14 -5 20 3 53 -19 122 -76 243 -29 60 -44 83 -50 75 -6 -9 -8 -7 -6 7
3 24 -21 85 -33 85 -5 0 -9 5 -9 10 0 13 -71 120 -79 120 -3 0 -12 13 -18 28
-17 36 -179 209 -272 289 -60 51 -81 63 -110 64 -28 0 -31 2 -16 8 17 7 13 12
-30 44 -28 20 -57 34 -65 31 -8 -3 -11 -2 -7 2 4 4 -1 13 -11 20 -46 32 -226
115 -321 148 -100 35 -105 36 -125 19 -12 -10 -24 -22 -28 -28 -5 -6 -8 -3 -8
7 0 9 8 21 17 27 25 13 18 17 -67 35 -189 38 -438 47 -620 20z m590 -55 c0 -6
-4 -7 -10 -4 -5 3 -10 11 -10 16 0 6 5 7 10 4 6 -3 10 -11 10 -16z m-793 -49
c0 -23 -3 -27 -13 -19 -10 8 -11 15 -1 30 6 10 12 19 13 19 0 0 1 -13 1 -30z
m-147 -10 c0 -5 -2 -10 -4 -10 -3 0 -8 5 -11 10 -3 6 -1 10 4 10 6 0 11 -4 11
-10z m1155 0 c3 -5 1 -10 -4 -10 -6 0 -11 5 -11 10 0 6 2 10 4 10 3 0 8 -4 11
-10z m-1135 -32 c0 -18 -2 -20 -9 -8 -6 8 -7 18 -5 22 9 14 14 9 14 -14z
m1154 -4 c4 -10 1 -14 -6 -12 -15 5 -23 28 -10 28 5 0 13 -7 16 -16z m105 -30
c17 -37 8 -39 -13 -4 -9 17 -13 30 -8 30 5 0 14 -12 21 -26z m126 -34 c3 -5 1
-10 -4 -10 -6 0 -11 5 -11 10 0 6 2 10 4 10 3 0 8 -4 11 -10z m72 -32 c-3 -8
-6 -5 -6 6 -1 11 2 17 5 13 3 -3 4 -12 1 -19z m550 -510 c-3 -7 -5 -2 -5 12 0
14 2 19 5 13 2 -7 2 -19 0 -25z m308 -1134 c-8 -20 -18 -35 -21 -32 -2 3 3 25
12 49 10 23 19 38 21 32 2 -6 -3 -28 -12 -49z m-10 -64 c37 -39 23 -39 -18 0
-18 16 -27 30 -21 30 5 0 23 -13 39 -30z m-85 -345 c0 -12 -6 -25 -13 -28 -9
-3 -12 5 -9 29 5 37 22 37 22 -1z m-10 -61 c0 -8 -5 -12 -10 -9 -6 4 -8 11 -5
16 9 14 15 11 15 -7z m-53 -61 c-12 -28 -16 -32 -16 -16 -1 12 4 25 10 29 6 3
8 15 5 27 -3 14 -2 17 6 9 8 -8 6 -22 -5 -49z m-40 -75 c-3 -8 -6 -5 -6 6 -1
11 2 17 5 13 3 -3 4 -12 1 -19z m-31 -155 c-7 -7 -26 7 -26 19 0 6 6 6 15 -2
9 -7 13 -15 11 -17z m-144 -121 c-7 -2 -12 -10 -12 -18 0 -9 -4 -12 -10 -9 -6
4 -5 13 2 25 7 10 17 16 22 13 6 -4 5 -8 -2 -11z m-27 -61 c3 -5 1 -12 -5 -16
-5 -3 -10 1 -10 9 0 18 6 21 15 7z m-38 -30 c-3 -15 -1 -33 6 -40 6 -6 7 -11
1 -11 -5 0 -15 9 -22 20 -10 16 -10 24 0 40 17 27 22 25 15 -9z m-24 -58 c-4
-11 -2 -14 5 -9 8 5 10 1 5 -10 -6 -16 -7 -15 -20 2 -7 10 -13 27 -13 37 0 16
3 17 14 7 8 -6 12 -19 9 -27z m-613 -443 c0 -5 -2 -10 -4 -10 -3 0 -8 5 -11
10 -3 6 -1 10 4 10 6 0 11 -4 11 -10z m-900 -87 c0 -5 -5 -15 -10 -23 -8 -12
-10 -11 -10 8 0 12 5 22 10 22 6 0 10 -3 10 -7z m305 -3 c3 -5 1 -10 -4 -10
-6 0 -11 5 -11 10 0 6 2 10 4 10 3 0 8 -4 11 -10z m140 -20 c3 -5 1 -10 -4
-10 -6 0 -11 5 -11 10 0 6 2 10 4 10 3 0 8 -4 11 -10z"/>
<path d="M1810 3526 c0 -13 7 -15 38 -10 34 5 227 -8 330 -22 26 -4 42 -3 42
4 0 16 -112 32 -267 39 -129 5 -143 4 -143 -11z"/>
<path d="M1633 3517 c-35 -5 -63 -14 -63 -19 0 -5 -4 -6 -10 -3 -12 8 -90 -13
-90 -24 0 -5 -8 -7 -18 -4 -23 5 -181 -53 -292 -107 -97 -48 -203 -114 -275
-173 -88 -72 -225 -211 -225 -230 0 -10 -4 -16 -9 -12 -5 3 -19 -7 -31 -22
-12 -15 -17 -29 -11 -31 10 -3 80 67 82 83 1 18 199 189 292 253 95 66 198
122 302 164 86 36 99 41 110 43 59 14 95 28 95 36 0 6 8 9 18 8 9 -1 19 0 22
1 3 1 19 3 35 4 103 9 155 20 155 32 0 15 1 15 -87 1z"/>
<path d="M1730 3520 c0 -5 16 -10 35 -10 19 0 35 5 35 10 0 6 -16 10 -35 10
-19 0 -35 -4 -35 -10z"/>
<path d="M2250 3492 c0 -6 26 -18 58 -26 31 -9 76 -22 100 -30 34 -12 42 -12
42 -2 0 8 -30 22 -72 34 -110 32 -128 35 -128 24z"/>
<path d="M1088 3464 c-16 -8 -28 -18 -28 -23 0 -4 -6 -8 -14 -8 -37 0 -226
-134 -356 -252 -64 -58 -80 -77 -75 -95 2 -11 2 -15 -1 -8 -9 21 -54 -26 -50
-52 2 -12 1 -15 -1 -8 -7 20 -20 14 -37 -20 -8 -18 -16 -29 -16 -24 0 5 -10
-3 -21 -18 -12 -15 -19 -29 -16 -32 2 -3 28 -6 57 -6 48 -1 55 1 80 33 16 18
26 37 24 41 -3 5 2 8 10 8 8 0 20 9 26 20 17 32 206 195 294 254 45 30 118 74
163 98 l83 44 -33 32 c-37 36 -50 38 -89 16z"/>
<path d="M1974 3425 c-32 -22 -65 -216 -45 -268 13 -34 70 -65 82 -45 7 10 9
10 9 1 0 -25 60 -14 91 16 32 32 40 81 13 81 -8 0 -12 -4 -9 -10 3 -6 -1 -7
-9 -4 -19 7 -11 24 10 24 13 0 12 4 -1 30 -9 17 -11 30 -6 30 5 0 13 -9 16
-20 13 -41 25 -18 25 49 0 64 -2 72 -31 100 -25 26 -38 31 -78 31 -25 0 -56
-7 -67 -15z m88 -98 c-1 -30 2 -58 8 -62 5 -3 10 -11 10 -18 0 -6 -7 -2 -15 9
-13 18 -14 16 -15 -27 0 -44 -21 -91 -32 -73 -6 9 9 198 17 222 3 8 11 12 17
10 9 -3 12 -23 10 -61z"/>
<path d="M2462 3430 c4 -12 178 -92 178 -82 0 4 4 2 8 -4 11 -16 161 -104 177
-104 8 0 14 -4 12 -9 -1 -5 29 -33 67 -62 132 -100 289 -275 377 -419 18 -30
36 -57 39 -60 4 -3 29 -57 58 -121 52 -118 111 -296 118 -359 3 -19 9 -59 14
-89 6 -30 10 -81 10 -112 0 -32 4 -60 8 -63 4 -3 4 -44 -1 -91 -9 -87 -5 -112
14 -85 9 14 6 233 -4 321 -27 216 -117 477 -229 661 -175 286 -460 531 -767
658 -83 34 -84 34 -79 20z"/>
<path d="M1562 3413 c-27 -5 -40 -29 -23 -46 8 -8 11 -6 11 8 0 10 3 16 6 12
3 -3 3 -15 -1 -28 -4 -12 -10 -17 -14 -11 -3 5 -15 12 -26 14 -18 3 -20 -2
-19 -39 1 -53 21 -77 88 -102 51 -18 79 -50 69 -77 -9 -24 -31 -15 -38 16 -5
23 -12 30 -30 30 -39 0 -55 -11 -55 -37 0 -16 4 -22 12 -17 7 5 9 2 5 -8 -23
-61 142 -63 185 -3 24 32 -8 135 -41 135 -12 0 -21 4 -21 8 0 5 -17 14 -39 20
-45 14 -64 33 -55 56 8 22 25 20 31 -4 6 -22 28 -25 67 -10 23 8 24 12 14 40
-15 44 -54 57 -126 43z"/>
<path d="M2280 3348 c-8 -24 -15 -47 -16 -53 0 -5 -5 -19 -10 -30 -4 -11 -20
-56 -35 -100 -23 -68 -25 -81 -12 -88 8 -5 21 -6 29 -3 8 3 14 1 14 -4 0 -29
19 -2 37 53 l21 62 1 -72 1 -71 36 -12 c20 -7 39 -8 43 -4 7 9 101 283 101
296 0 10 -63 29 -70 21 -3 -5 -14 -34 -24 -66 -10 -32 -20 -56 -23 -53 -4 3
-5 34 -4 69 2 68 -4 80 -50 92 -23 6 -27 2 -39 -37z"/>
<path d="M1323 3333 c-18 -9 -33 -24 -33 -32 0 -11 -3 -12 -8 -4 -6 9 -18 7
-50 -7 -47 -21 -46 -19 -32 -54 8 -23 12 -25 36 -16 15 6 28 9 28 8 4 -5 79
-173 92 -205 l14 -32 40 16 c22 9 40 20 40 25 0 4 -23 59 -50 121 -47 103 -49
113 -33 124 9 7 20 13 24 13 4 0 2 14 -4 30 -13 34 -19 35 -64 13z"/>
<path d="M2543 3156 c-35 -62 -63 -119 -63 -125 0 -6 -4 -11 -9 -11 -15 0 -23
-33 -9 -42 7 -4 36 -21 65 -38 l52 -30 16 30 c14 28 14 30 -7 41 -13 6 -24 13
-26 14 -1 1 20 42 49 91 89 154 85 140 40 164 -22 11 -42 20 -43 20 -2 0 -31
-52 -65 -114z m64 2 c-3 -8 -6 -5 -6 6 -1 11 2 17 5 13 3 -3 4 -12 1 -19z"/>
<path d="M1053 3189 c-18 -12 -33 -23 -33 -25 0 -15 98 -153 105 -147 4 5 5 3
1 -4 -5 -10 59 -123 70 -123 3 0 113 68 122 76 2 1 -4 14 -13 28 -14 20 -21
24 -35 16 -10 -6 -23 -10 -28 -10 -6 0 -40 47 -77 105 -37 58 -70 105 -74 105
-3 0 -21 -10 -38 -21z"/>
<path d="M2745 3073 c-21 -54 -55 -120 -76 -148 -21 -27 -35 -53 -33 -57 3 -4
17 -16 33 -27 l29 -21 33 45 c21 27 71 69 127 106 l94 61 -23 24 c-12 13 -30
24 -39 24 -22 0 -50 -31 -50 -55 0 -14 -3 -16 -11 -8 -6 6 -18 9 -25 6 -10 -4
-14 3 -13 23 0 25 2 26 8 9 7 -18 10 -15 29 21 20 39 20 42 4 56 -52 43 -47
46 -87 -59z"/>
<path d="M883 3058 l-32 -33 57 -63 c45 -49 60 -60 72 -52 19 13 30 13 30 0 0
-5 -10 -10 -22 -10 -21 0 -20 -2 10 -33 30 -31 41 -57 24 -57 -4 0 -30 22 -57
50 -26 27 -53 46 -58 43 -6 -3 -33 -5 -61 -4 l-51 2 75 -77 c41 -41 85 -80 98
-85 51 -20 142 52 142 113 0 22 -14 44 -57 91 -32 34 -76 81 -98 105 l-40 43
-32 -33z m157 -158 c0 -5 -5 -10 -11 -10 -5 0 -7 5 -4 10 3 6 8 10 11 10 2 0
4 -4 4 -10z m47 -82 c-3 -8 -6 -5 -6 6 -1 11 2 17 5 13 3 -3 4 -12 1 -19z"/>
<path d="M1767 3033 c-30 -3 -37 -8 -33 -19 3 -9 6 -19 6 -23 0 -5 21 -6 48
-3 46 4 66 17 55 36 -3 5 -1 6 5 2 6 -3 13 -2 17 4 6 10 -20 11 -98 3z"/>
<path d="M1868 3019 c-10 -10 -18 -21 -18 -24 0 -3 39 -5 88 -5 110 -1 213
-19 327 -58 49 -17 93 -28 99 -25 6 3 7 2 3 -2 -4 -5 7 -17 25 -26 30 -16 33
-16 46 0 12 14 12 14 10 -4 -3 -15 11 -29 52 -57 30 -20 88 -64 128 -97 39
-34 72 -56 72 -51 0 7 6 8 19 0 38 -20 35 -10 -9 36 -155 158 -392 278 -629
318 -126 21 -191 20 -213 -5z"/>
<path d="M1688 3014 c-4 -3 -24 -8 -45 -9 -82 -7 -261 -82 -373 -157 -77 -51
-141 -108 -135 -119 4 -5 -1 -6 -10 -3 -11 5 -14 2 -9 -11 5 -11 2 -16 -9 -13
-23 5 -121 -111 -192 -229 -26 -43 -32 -60 -23 -70 8 -10 7 -12 -5 -8 -11 5
-22 -12 -46 -75 -58 -149 -88 -317 -67 -364 7 -14 6 -17 -3 -12 -23 15 -6
-224 24 -339 41 -159 174 -416 197 -383 6 9 7 6 3 -9 -5 -17 12 -40 92 -120
54 -54 127 -118 163 -141 63 -42 64 -42 72 -21 5 12 7 23 6 24 -106 65 -225
173 -301 275 -23 30 -44 57 -47 60 -15 13 -100 191 -115 242 -14 43 -22 55
-34 51 -13 -4 -13 -3 -2 5 11 8 11 19 1 61 -11 45 -14 50 -28 39 -14 -11 -14
-10 -7 12 9 27 11 91 6 185 -2 33 2 96 9 140 7 44 13 91 13 105 1 14 4 27 7
30 3 3 18 43 34 90 15 47 45 117 66 156 27 49 36 75 29 85 -14 22 -10 36 5 16
13 -17 15 -17 30 4 8 12 12 27 9 32 -3 6 -1 7 4 4 10 -7 28 20 25 36 -1 4 1 6
5 5 5 -2 35 27 68 62 33 36 65 68 72 73 7 4 18 13 25 20 27 27 136 96 213 134
81 41 230 93 266 93 11 0 22 7 26 16 5 13 8 13 15 2 7 -9 8 -8 6 7 -3 20 -28
32 -40 19z m-828 -744 c0 -5 -2 -10 -4 -10 -3 0 -8 5 -11 10 -3 6 -1 10 4 10
6 0 11 -4 11 -10z"/>
<path d="M787 2972 c-33 -35 -24 -50 33 -52 85 -3 84 -4 49 40 -18 22 -38 40
-44 40 -6 0 -23 -12 -38 -28z"/>
<path d="M1870 2970 c-8 -5 -12 -11 -10 -14 3 -2 52 -6 110 -8 100 -4 291 -43
298 -60 2 -5 9 -8 15 -8 7 0 41 -14 76 -30 35 -17 67 -28 70 -24 9 9 -31 35
-46 30 -7 -3 -16 0 -20 7 -20 32 -219 92 -338 102 -38 3 -86 8 -105 10 -19 2
-42 0 -50 -5z"/>
<path d="M1805 2960 c-4 -6 5 -10 19 -10 14 0 26 5 26 10 0 6 -9 10 -19 10
-11 0 -23 -4 -26 -10z"/>
<path d="M1635 2940 c-98 -25 -248 -87 -265 -109 -3 -3 -22 -15 -43 -26 -58
-31 -148 -105 -141 -116 4 -7 12 -4 23 6 100 98 349 217 504 240 50 8 65 25
20 24 -16 0 -59 -8 -98 -19z"/>
<path d="M436 2874 c-30 -29 -38 -53 -26 -75 7 -11 9 -23 6 -26 -3 -3 -9 5
-14 18 l-9 23 -14 -24 c-7 -14 -14 -27 -14 -30 0 -3 -8 -16 -17 -30 -44 -65
-148 -329 -148 -374 0 -12 -4 -26 -9 -32 -15 -16 -44 -192 -38 -229 3 -20 2
-33 -2 -31 -11 7 -21 -162 -14 -245 5 -62 8 -70 25 -66 17 5 17 3 -2 -20 -19
-24 -19 -28 -5 -44 12 -12 13 -18 4 -21 -10 -3 -9 -24 5 -94 22 -112 62 -252
77 -270 6 -8 9 -14 5 -14 -7 0 26 -84 71 -180 l35 -74 24 29 c17 21 23 38 19
55 -4 19 -3 21 5 10 8 -12 10 -12 10 -1 0 18 -50 132 -68 153 -8 9 -12 20 -9
25 2 4 1 17 -4 28 -8 20 -8 20 -14 0 -3 -12 -15 -26 -26 -33 -16 -10 -21 -10
-26 5 -5 11 3 24 25 41 l31 23 -15 42 c-23 64 -64 279 -64 332 0 38 -3 46 -15
41 -42 -17 -48 -16 -23 4 24 19 27 27 27 88 1 37 5 103 10 147 5 51 5 85 -2
93 -6 8 -6 12 1 12 6 0 14 17 17 38 4 20 16 75 27 122 23 94 23 93 14 135 -6
28 -6 28 5 7 11 -21 15 -17 44 61 44 112 97 215 161 315 l54 82 -55 0 c-35 0
-59 -5 -69 -16z m-86 -255 c0 -6 -4 -7 -10 -4 -5 3 -10 11 -10 16 0 6 5 7 10
4 6 -3 10 -11 10 -16z m-100 -189 c0 -5 -2 -10 -4 -10 -3 0 -8 5 -11 10 -3 6
-1 10 4 10 6 0 11 -4 11 -10z m8 -905 c-3 -3 -9 2 -12 12 -6 14 -5 15 5 6 7
-7 10 -15 7 -18z"/>
<path d="M530 2800 c-29 -47 -53 -93 -53 -103 1 -9 -2 -15 -6 -13 -11 7 -61
-86 -61 -113 0 -11 -4 -21 -10 -21 -5 0 -10 -4 -10 -10 0 -24 29 6 51 53 13
29 36 74 51 100 16 27 25 53 22 59 -4 6 -3 8 3 5 13 -8 75 88 71 110 -2 11
-22 -12 -58 -67z"/>
<path d="M2440 2818 c0 -8 28 -29 63 -47 34 -19 65 -39 69 -45 5 -8 8 -7 8 1
0 11 -74 69 -117 92 -18 9 -23 9 -23 -1z"/>
<path d="M644 2785 c-14 -14 -22 -30 -18 -37 4 -6 3 -8 -3 -5 -14 9 -44 -37
-48 -74 -3 -21 1 -32 17 -40 15 -8 19 -8 14 0 -4 6 -3 11 2 11 5 0 12 -9 15
-20 3 -11 12 -20 21 -20 9 0 16 -4 16 -9 0 -11 81 -64 97 -64 7 0 13 -4 13 -8
0 -3 12 -14 26 -24 20 -13 28 -14 40 -5 7 7 11 16 8 21 -3 5 -1 9 4 9 6 0 24
22 42 49 50 79 43 94 -75 174 -54 37 -110 67 -122 67 -13 0 -35 -11 -49 -25z
m11 -35 c3 -5 1 -10 -4 -10 -6 0 -11 5 -11 10 0 6 2 10 4 10 3 0 8 -4 11 -10z
m46 -43 c34 -18 82 -50 97 -64 7 -7 20 -16 29 -21 8 -5 13 -16 12 -26 -3 -13
-20 -5 -86 39 -46 30 -83 52 -83 48 0 -5 -4 -1 -9 7 -19 29 2 38 40 17z m-91
-27 c0 -5 -4 -10 -10 -10 -5 0 -10 5 -10 10 0 6 5 10 10 10 6 0 10 -4 10 -10z"/>
<path d="M2675 2618 c36 -39 90 -108 119 -152 50 -76 126 -244 126 -279 0 -8
7 -21 16 -28 15 -12 16 -10 9 21 -29 141 -164 373 -274 473 -69 62 -67 41 4
-35z"/>
<path d="M3087 2683 c-4 -3 -7 -14 -7 -24 0 -11 -14 -26 -32 -35 -30 -16 -31
-17 -12 -30 37 -26 44 -35 44 -61 l0 -26 23 21 c13 12 33 22 45 22 21 0 26 9
23 37 -1 7 5 27 14 44 l17 31 -32 -7 c-25 -5 -37 -2 -54 14 -12 12 -26 18 -29
14z"/>
<path d="M1122 2637 c-23 -23 -42 -49 -42 -57 0 -7 -3 -10 -6 -7 -4 4 -24 -17
-45 -45 -22 -28 -37 -54 -34 -56 3 -3 -2 -10 -10 -16 -38 -30 -132 -265 -137
-347 -2 -24 -6 -46 -10 -49 -10 -8 -20 -217 -13 -263 12 -66 18 -32 20 101 2
141 21 248 63 357 15 39 27 75 27 80 0 6 3 12 6 15 14 12 79 133 79 147 0 9 3
13 6 10 4 -3 25 17 48 46 22 28 56 65 74 80 31 28 41 47 24 47 -4 0 -27 -19
-50 -43z"/>
<path d="M2729 2622 c6 -12 16 -24 21 -27 6 -4 32 -39 58 -78 141 -210 195
-394 191 -647 -2 -80 0 -151 4 -157 4 -6 0 -13 -8 -17 -8 -3 -15 -15 -15 -27
0 -12 -16 -69 -35 -126 -19 -58 -32 -110 -28 -115 3 -7 1 -8 -5 -4 -7 4 -23
-16 -42 -54 -25 -49 -28 -64 -19 -81 l11 -21 14 21 c31 44 93 179 118 256 41
129 50 192 51 338 0 127 -2 140 -20 155 -12 11 -19 26 -17 41 3 19 6 21 13 10
7 -11 9 -10 9 5 0 30 -31 140 -44 156 -21 25 -30 44 -18 36 28 -17 -44 137
-113 244 -49 76 -70 96 -109 106 -26 6 -27 5 -17 -14z m291 -882 c0 -5 -4 -10
-10 -10 -5 0 -10 5 -10 10 0 6 5 10 10 10 6 0 10 -4 10 -10z"/>
<path d="M365 2477 c-9 -24 -17 -50 -19 -57 -2 -8 -8 -28 -14 -43 -14 -32 -15
-51 -5 -61 6 -6 18 25 57 157 18 59 3 62 -19 4z"/>
<path d="M465 2466 c-8 -20 -15 -42 -15 -50 0 -8 -4 -18 -10 -21 -19 -11 -10
-22 33 -41 23 -10 48 -25 56 -32 7 -7 18 -11 24 -9 6 2 19 -5 29 -15 22 -22
38 -23 38 -3 0 8 5 15 10 15 5 0 9 -3 9 -7 -4 -27 5 -44 37 -62 45 -27 50 -27
59 7 15 59 14 63 -10 72 -22 8 -24 12 -13 35 10 22 13 23 27 11 9 -7 21 -11
28 -9 12 4 38 71 31 79 -4 4 -198 44 -281 59 -36 6 -38 4 -52 -29z m125 -21
c0 -12 -19 -12 -23 0 -4 9 -1 12 9 8 7 -3 14 -7 14 -8z m47 -56 c15 -5 21 -14
17 -23 -5 -13 -14 -11 -55 9 -27 14 -49 28 -49 31 0 6 53 -4 87 -17z m53 -19
c0 -5 -2 -10 -4 -10 -3 0 -8 5 -11 10 -3 6 -1 10 4 10 6 0 11 -4 11 -10z m-10
-90 c0 -5 -5 -10 -11 -10 -5 0 -7 5 -4 10 3 6 8 10 11 10 2 0 4 -4 4 -10z"/>
<path d="M1799 2435 c-59 -16 -69 -22 -69 -43 0 -14 -2 -14 -9 -3 -8 12 -14
12 -39 2 -37 -15 -98 -77 -111 -114 -17 -45 -14 -137 6 -159 10 -11 12 -18 4
-18 -8 0 -7 -10 4 -36 23 -55 52 -90 88 -108 l34 -16 -25 -49 c-23 -48 -24
-54 -13 -118 31 -182 107 -327 177 -337 7 -1 17 -5 20 -9 9 -9 131 -9 162 -1
19 5 22 12 18 30 -3 12 -2 25 4 29 5 3 12 -6 16 -20 8 -31 13 -31 77 0 101 48
151 117 149 204 -2 101 -72 301 -118 342 -11 9 -36 22 -56 28 l-38 13 26 33
c34 45 40 97 19 167 -48 165 -161 229 -326 183z m171 -31 c0 -8 -4 -14 -10
-14 -5 0 -10 9 -10 21 0 11 5 17 10 14 6 -3 10 -13 10 -21z m-180 -68 c0 -3
-4 -8 -10 -11 -5 -3 -10 -1 -10 4 0 6 5 11 10 11 6 0 10 -2 10 -4z m-175 -46
c3 -5 1 -10 -4 -10 -6 0 -11 5 -11 10 0 6 2 10 4 10 3 0 8 -4 11 -10z m239
-15 c20 -20 56 -137 56 -180 0 -21 -6 -35 -16 -39 -37 -14 -53 4 -79 85 -30
94 -31 124 -7 138 23 14 28 13 46 -4z m-224 -120 c7 -9 8 -15 2 -15 -5 0 -12
7 -16 15 -3 8 -4 15 -2 15 2 0 9 -7 16 -15z m327 -67 c-2 -13 -4 -5 -4 17 -1
22 1 32 4 23 2 -10 2 -28 0 -40z m112 -28 c0 -23 -1 -23 -9 -5 -5 11 -9 29 -9
40 -1 17 1 17 9 5 5 -8 9 -26 9 -40z m-439 30 c0 -5 -5 -10 -11 -10 -5 0 -7 5
-4 10 3 6 8 10 11 10 2 0 4 -4 4 -10z m384 -145 c6 -56 6 -58 -8 -35 -9 14
-15 48 -15 75 0 66 14 40 23 -40z m-194 -60 c0 -5 -5 -3 -10 5 -5 8 -10 20
-10 25 0 6 5 3 10 -5 5 -8 10 -19 10 -25z m154 -1 c16 -16 75 -200 94 -294 6
-30 14 -66 17 -80 l7 -25 -16 25 c-8 14 -19 34 -24 45 -6 11 -20 21 -33 22
-32 3 -45 23 -78 128 -43 134 -48 165 -26 182 24 17 40 17 59 -3z m-154 -44
c0 -5 -2 -10 -4 -10 -3 0 -8 5 -11 10 -3 6 -1 10 4 10 6 0 11 -4 11 -10z m410
-66 c0 -8 -4 -12 -10 -9 -5 3 -10 13 -10 21 0 8 5 12 10 9 6 -3 10 -13 10 -21z
m-150 -119 c0 -8 -2 -15 -4 -15 -2 0 -6 7 -10 15 -3 8 -1 15 4 15 6 0 10 -7
10 -15z m-320 -96 c0 -6 -4 -7 -10 -4 -5 3 -10 11 -10 16 0 6 5 7 10 4 6 -3
10 -11 10 -16z"/>
<path d="M3225 2384 c-4 -16 -11 -39 -17 -51 -8 -17 -8 -26 2 -38 9 -11 10
-15 0 -15 -6 0 -14 9 -17 20 -6 22 -6 22 -27 14 -24 -9 -19 -22 14 -39 23 -12
31 -24 36 -56 6 -38 8 -39 25 -23 10 9 16 21 12 27 -4 7 13 8 50 4 l56 -7 -15
35 c-13 31 -13 39 1 65 21 40 20 42 -20 39 -27 -3 -41 3 -64 25 l-30 29 -6
-29z m52 -136 c-3 -8 -6 -5 -6 6 -1 11 2 17 5 13 3 -3 4 -12 1 -19z"/>
<path d="M2408 2383 c-55 -16 -56 -20 -28 -113 11 -36 20 -70 20 -77 0 -7 -39
-24 -86 -39 l-86 -26 7 -35 c10 -54 23 -83 38 -83 7 0 46 11 86 25 41 13 77
23 81 20 4 -2 17 -39 30 -82 12 -43 25 -81 29 -85 4 -4 32 0 64 8 54 16 56 18
50 43 -11 49 -23 72 -38 77 -11 5 -13 10 -5 19 6 7 8 24 5 37 -6 22 -1 26 85
53 67 22 89 33 85 43 -3 8 -10 34 -16 58 -6 24 -16 44 -21 44 -19 0 -153 -43
-166 -53 -10 -8 -16 -7 -22 3 -5 8 -7 17 -4 21 8 13 -39 159 -51 158 -5 -1
-31 -8 -57 -16z m18 -125 c10 -20 12 -29 4 -26 -7 2 -18 18 -26 36 -16 40 0
32 22 -10z m74 -19 c0 -6 -4 -8 -9 -5 -5 3 -14 -1 -22 -10 -7 -8 -22 -20 -33
-25 -19 -9 -19 -9 2 10 12 10 22 23 22 28 0 5 9 9 20 10 11 1 20 -3 20 -8z
m45 -49 c3 -5 1 -10 -4 -10 -6 0 -11 5 -11 10 0 6 2 10 4 10 3 0 8 -4 11 -10z
m45 -21 c0 -6 -4 -7 -10 -4 -5 3 -10 11 -10 16 0 6 5 7 10 4 6 -3 10 -11 10
-16z m-200 -50 c0 -6 -4 -7 -10 -4 -5 3 -10 11 -10 16 0 6 5 7 10 4 6 -3 10
-11 10 -16z m30 -50 c0 -6 -4 -7 -10 -4 -5 3 -10 11 -10 16 0 6 5 7 10 4 6 -3
10 -11 10 -16z"/>
<path d="M305 2288 c-4 -15 -8 -42 -8 -60 -1 -18 -6 -36 -12 -40 -5 -4 -6 -10
-2 -14 11 -11 17 0 32 57 9 32 11 58 5 68 -7 13 -10 11 -15 -11z"/>
<path d="M1315 2271 c-12 -5 -27 -16 -34 -25 -9 -11 -18 -13 -25 -7 -16 13
-27 3 -51 -42 -11 -21 -38 -57 -60 -80 -40 -41 -112 -105 -121 -106 -8 -2 -6
-15 11 -63 1 -5 3 -15 4 -23 0 -9 11 -15 24 -15 18 0 19 2 7 11 -12 8 -11 9 6
4 12 -3 43 -1 69 5 35 8 50 8 55 0 4 -7 11 -11 16 -11 5 0 9 -5 9 -12 0 -22
28 -97 36 -97 4 0 5 -8 2 -19 -3 -10 0 -22 6 -25 6 -4 11 -19 11 -34 1 -15 7
-40 14 -57 l13 -30 7 38 c10 52 25 46 24 -9 0 -34 -4 -44 -14 -40 -9 4 -14 -2
-14 -17 0 -18 2 -19 10 -7 9 13 10 13 11 0 1 -8 0 -27 -1 -42 -1 -16 3 -28 8
-28 11 0 22 33 22 68 0 12 5 22 10 22 14 0 12 -84 -2 -98 -7 -7 -8 -12 -4 -12
5 0 3 -6 -3 -14 -10 -11 -5 -38 19 -123 18 -59 34 -111 36 -114 5 -9 81 14 95
28 6 6 17 9 25 6 7 -3 36 3 64 12 59 20 59 13 10 164 -15 47 -31 101 -35 118
-3 18 -11 35 -16 38 -5 4 -9 15 -9 26 0 11 -23 95 -51 187 -28 92 -55 181 -60
199 -5 18 -14 35 -19 38 -5 3 -7 11 -4 18 2 7 -5 39 -16 72 -12 33 -22 69 -23
80 -2 22 -30 29 -62 16z m-70 -127 c-29 -21 -12 -81 28 -99 27 -11 28 -13 7
-10 -14 2 -30 4 -36 4 -6 1 -17 27 -24 58 -12 55 -11 58 9 71 11 8 22 22 22
31 1 9 4 3 6 -14 3 -20 -1 -33 -12 -41z m125 -64 c0 -5 -2 -10 -4 -10 -3 0 -8
5 -11 10 -3 6 -1 10 4 10 6 0 11 -4 11 -10z m-149 -127 c-12 -20 -14 -14 -5
12 4 9 9 14 11 11 3 -2 0 -13 -6 -23z m64 17 c3 -5 2 -10 -4 -10 -5 0 -13 5
-16 10 -3 6 -2 10 4 10 5 0 13 -4 16 -10z m55 -31 c0 -20 -15 -26 -25 -9 -9
15 3 43 15 35 5 -3 10 -15 10 -26z m50 5 c0 -8 -4 -12 -10 -9 -5 3 -10 13 -10
21 0 8 5 12 10 9 6 -3 10 -13 10 -21z m2 -73 c1 -13 -3 -26 -9 -28 -9 -3 -13
7 -13 33 0 41 16 37 22 -5z m78 19 c0 -5 -2 -10 -4 -10 -3 0 -8 5 -11 10 -3 6
-1 10 4 10 6 0 11 -4 11 -10z m-145 -10 c3 -5 1 -10 -4 -10 -6 0 -11 5 -11 10
0 6 2 10 4 10 3 0 8 -4 11 -10z m-35 -41 c0 -11 -4 -17 -10 -14 -5 3 -10 13
-10 21 0 8 5 14 10 14 6 0 10 -9 10 -21z m64 -41 c3 -13 6 -36 6 -52 0 -24 -2
-27 -15 -16 -9 7 -15 29 -15 51 0 43 14 52 24 17z m-50 -54 c3 -8 2 -12 -4 -9
-6 3 -10 10 -10 16 0 14 7 11 14 -7z m311 -340 c-2 -11 -4 -23 -5 -29 -2 -12
-28 55 -29 74 -1 10 5 9 18 -6 11 -11 18 -29 16 -39z m-180 6 c3 -11 4 -29 0
-39 -4 -13 0 -23 12 -30 25 -14 9 -25 -16 -11 -17 8 -21 20 -21 55 0 46 14 60
25 25z m87 -35 c-5 -18 -11 -25 -16 -17 -4 6 -2 21 4 33 15 28 21 20 12 -16z"/>
<path d="M273 2123 c-4 -21 -8 -128 -8 -238 0 -171 4 -216 24 -310 13 -60 28
-119 34 -130 6 -11 11 -26 12 -34 0 -8 6 -15 13 -17 7 -1 8 0 2 3 -5 2 -8 9
-4 14 3 5 -4 42 -14 82 -11 39 -26 106 -32 147 -14 85 -28 372 -19 380 3 3 9
33 12 67 7 69 -7 95 -20 36z"/>
<path d="M2948 2109 c-2 -7 0 -36 4 -64 12 -66 10 -244 -3 -325 -15 -90 -55
-211 -100 -302 -43 -85 -44 -88 -29 -88 12 0 71 115 63 123 -3 3 2 13 11 22 9
9 14 21 11 26 -4 5 -2 9 3 9 11 0 48 123 63 214 20 121 1 456 -23 385z"/>
<path d="M3280 2028 c0 -15 -6 -33 -13 -40 -8 -7 -12 -19 -9 -26 2 -6 -1 -12
-7 -12 -6 0 -11 4 -11 10 0 5 -7 7 -16 3 -12 -4 -8 -10 15 -24 24 -14 31 -26
31 -49 0 -20 4 -29 11 -25 6 4 8 20 4 38 -6 30 -5 31 9 13 9 -11 31 -19 56
-21 l41 -3 -16 24 c-14 22 -14 27 0 54 20 39 20 40 -16 33 -26 -5 -35 -1 -55
23 l-23 29 -1 -27z"/>
<path d="M479 1902 c-1 -7 -3 -16 -4 -22 -1 -5 -3 -14 -4 -19 0 -5 -14 -14
-31 -21 -31 -13 -33 -34 -2 -23 9 3 14 3 10 -2 -4 -4 -1 -14 7 -22 8 -8 15
-25 15 -39 0 -29 20 -32 27 -3 5 18 11 19 44 14 26 -4 39 -3 39 4 0 6 -4 11
-10 11 -15 0 -12 38 5 64 15 22 14 23 -16 24 -18 0 -42 10 -55 23 -14 13 -25
17 -25 11z m41 -50 c0 -4 -9 -8 -19 -8 -11 0 -17 4 -15 8 3 4 12 8 20 8 8 0
14 -4 14 -8z m8 -47 c-3 -3 -9 2 -12 12 -6 14 -5 15 5 6 7 -7 10 -15 7 -18z"/>
<path d="M843 1695 c2 -26 7 -49 11 -52 12 -13 16 5 10 50 -9 61 -28 62 -21 2z"/>
<path d="M3515 1697 c-4 -24 -8 -63 -8 -85 -1 -23 -5 -42 -8 -42 -4 0 -9 -13
-12 -29 -3 -16 -9 -41 -13 -56 -5 -20 -3 -26 6 -23 7 2 14 11 16 19 1 7 9 43
17 79 23 98 30 167 18 174 -6 4 -12 -12 -16 -37z"/>
<path d="M860 1617 c0 -25 42 -137 52 -137 5 0 7 -4 3 -10 -8 -12 36 -98 98
-190 54 -80 219 -250 243 -250 8 0 14 -4 14 -8 0 -8 53 -42 65 -42 17 0 -6 22
-82 79 -161 121 -289 301 -354 498 -22 67 -39 93 -39 60z"/>
<path d="M506 1575 c-3 -9 -6 -24 -6 -34 0 -19 -28 -46 -49 -46 -28 0 -21 -22
14 -38 32 -15 35 -21 35 -58 l0 -41 39 35 c21 19 48 38 60 42 16 5 20 12 16
26 -4 11 0 31 9 44 24 36 20 44 -20 38 -29 -5 -40 -1 -63 21 -24 23 -29 25
-35 11z m29 -35 c3 -5 1 -10 -4 -10 -6 0 -11 5 -11 10 0 6 2 10 4 10 3 0 8 -4
11 -10z"/>
<path d="M3070 1567 c0 -7 5 -18 12 -25 12 -12 10 -13 -14 -16 -22 -2 -14 -27
14 -44 33 -20 47 -9 29 21 -11 18 -11 20 0 10 19 -19 29 -16 29 7 0 12 -10 25
-25 32 -14 6 -25 15 -25 20 0 4 -4 8 -10 8 -5 0 -10 -6 -10 -13z"/>
<path d="M3145 1500 c-3 -11 -3 -25 1 -31 4 -7 3 -9 -4 -5 -6 3 -13 2 -17 -4
-3 -5 -1 -10 4 -10 6 0 11 -4 11 -10 0 -6 -9 -6 -26 0 -48 19 -84 13 -95 -17
-5 -14 -8 -32 -5 -40 7 -17 63 -17 69 0 4 10 6 10 6 0 1 -9 20 -13 61 -13 35
0 85 -9 117 -20 32 -11 58 -20 59 -20 4 0 34 63 34 71 0 5 -18 13 -39 19 -22
6 -61 26 -88 45 -79 57 -81 58 -88 35z m75 -50 c0 -5 -5 -10 -11 -10 -5 0 -7
5 -4 10 3 6 8 10 11 10 2 0 4 -4 4 -10z m-100 -37 c0 -5 -5 -15 -10 -23 -7
-12 -9 -10 -7 8 1 19 17 33 17 15z m184 -42 c9 -12 8 -12 -11 -2 -26 13 -26
13 -16 38 7 17 8 17 11 -2 2 -11 9 -26 16 -34z"/>
<path d="M3457 1430 c-3 -13 0 -20 9 -20 15 0 19 26 5 34 -5 3 -11 -3 -14 -14z"/>
<path d="M620 1410 c0 -5 5 -10 10 -10 6 0 10 5 10 10 0 6 -4 10 -10 10 -5 0
-10 -4 -10 -10z"/>
<path d="M3452 1388 c-7 -7 -12 -17 -12 -24 0 -12 -52 -130 -96 -218 -14 -27
-21 -53 -17 -57 11 -11 117 207 108 221 -3 5 -2 10 3 10 5 0 14 18 20 40 11
44 11 45 -6 28z"/>
<path d="M340 1375 c0 -29 132 -307 164 -345 7 -8 16 -23 19 -33 4 -11 12 -15
18 -11 8 4 9 3 5 -5 -14 -22 158 -226 274 -326 53 -46 117 -95 124 -95 19 0
-2 24 -66 78 -79 66 -275 262 -261 262 2 0 -8 17 -24 38 -67 85 -163 260 -198
355 -9 26 -23 53 -30 61 -8 7 -11 16 -8 20 4 3 1 6 -5 6 -7 0 -12 -2 -12 -5z"/>
<path d="M2951 1289 c-24 -42 -19 -58 17 -59 6 0 21 -9 32 -20 24 -24 50 -26
50 -4 0 9 9 18 19 21 29 7 33 31 8 44 -12 7 -40 22 -63 35 l-40 24 -23 -41z"/>
<path d="M2752 1260 c-79 -116 -268 -268 -411 -332 -39 -17 -71 -35 -71 -40 0
-24 176 62 271 133 114 85 297 290 257 289 -7 0 -28 -23 -46 -50z"/>
<path d="M2803 1261 c-6 -10 -32 -44 -58 -75 -25 -31 -43 -62 -39 -68 4 -6 1
-9 -7 -6 -8 3 -37 -16 -66 -42 -69 -63 -180 -135 -273 -178 -89 -41 -82 -35
-74 -56 8 -22 15 -21 101 19 155 72 311 195 416 329 37 48 44 63 36 78 -12 23
-21 23 -36 -1z"/>
<path d="M665 1228 c-6 -19 -20 -37 -32 -43 -30 -13 -29 -23 2 -31 21 -5 25
-12 25 -40 0 -39 9 -43 34 -15 14 15 26 18 53 14 33 -6 35 -5 24 15 -6 11 -16
24 -22 27 -7 5 -3 14 10 26 30 28 26 39 -14 39 -24 0 -37 6 -45 20 -15 28 -24
25 -35 -12z"/>
<path d="M3092 1213 c-25 -38 -19 -56 21 -69 12 -4 34 -15 49 -25 35 -25 45
-24 53 9 6 23 8 24 14 9 6 -17 8 -16 19 8 10 21 10 31 1 41 -7 9 -8 14 -1 14
6 0 12 -6 14 -12 3 -8 9 -5 16 9 11 20 9 24 -18 38 -29 15 -31 15 -39 -8 -13
-32 -45 -40 -62 -15 -27 38 -42 38 -67 1z m58 -54 c0 -5 -4 -9 -10 -9 -5 0
-10 7 -10 16 0 8 5 12 10 9 6 -3 10 -10 10 -16z"/>
<path d="M2864 1159 c-19 -21 -19 -21 36 -71 l55 -49 -39 16 c-22 8 -46 13
-53 11 -7 -3 -13 -1 -13 4 0 5 -9 12 -21 15 -23 8 -50 -20 -42 -42 4 -9 0 -11
-13 -6 -18 6 -18 6 0 -15 10 -12 23 -19 27 -16 5 3 9 1 9 -4 0 -5 27 -33 61
-62 49 -43 63 -50 71 -39 8 11 9 10 4 -3 -3 -12 7 -27 31 -47 l36 -29 25 30
c22 26 24 32 11 42 -40 29 -93 76 -87 76 4 0 18 -4 31 -9 22 -9 18 2 -37 105
-33 63 -63 114 -67 114 -3 0 -14 -10 -25 -21z"/>
<path d="M2941 1133 c10 -20 27 -46 38 -57 10 -12 28 -39 39 -61 12 -22 32
-53 46 -70 l25 -30 26 29 c14 16 25 32 25 36 0 7 -119 111 -196 172 l-22 18
19 -37z"/>
<path d="M410 1088 c-7 -12 -21 -32 -30 -43 -18 -19 -18 -21 7 -62 14 -24 29
-43 34 -43 5 0 9 -6 9 -14 0 -22 112 -168 198 -258 111 -116 271 -243 286
-227 3 3 9 23 14 46 l10 42 -82 64 c-44 36 -114 99 -155 141 -40 42 -77 76
-82 76 -5 0 -9 5 -9 11 0 6 -22 42 -50 79 -27 38 -69 101 -94 140 -43 69 -45
71 -56 48z m97 -154 c-9 -9 -27 6 -27 22 0 13 2 13 16 -1 9 -9 14 -18 11 -21z
m-3 -39 c3 -9 0 -15 -9 -15 -9 0 -12 6 -9 15 4 8 7 15 9 15 2 0 5 -7 9 -15z
m76 -35 c0 -5 -2 -10 -4 -10 -3 0 -8 5 -11 10 -3 6 -1 10 4 10 6 0 11 -4 11
-10z m300 -360 c0 -5 -2 -10 -4 -10 -3 0 -8 5 -11 10 -3 6 -1 10 4 10 6 0 11
-4 11 -10z"/>
<path d="M3289 1048 c-7 -18 -19 -36 -25 -41 -7 -4 -11 -14 -8 -22 4 -9 0 -15
-7 -16 -17 0 -79 -83 -79 -105 0 -8 -4 -13 -9 -9 -5 3 -13 0 -16 -6 -5 -7 0
-10 11 -7 20 4 157 185 149 198 -3 4 2 11 11 14 8 3 12 10 9 16 -11 18 -22 11
-36 -22z"/>
<path d="M1350 973 c0 -7 38 -31 84 -53 91 -43 100 -46 94 -30 -5 17 -178 97
-178 83z"/>
<path d="M1076 951 c-14 -15 -23 -31 -19 -36 5 -4 3 -5 -3 -2 -6 3 -51 -32
-100 -78 l-89 -84 30 -25 c35 -29 48 -32 65 -11 7 8 18 15 25 15 7 0 22 19 33
43 10 23 24 53 31 67 l11 25 -6 -25 -6 -25 31 29 c17 16 34 26 38 23 3 -4 2
-7 -3 -7 -5 0 -23 -22 -39 -49 -16 -28 -32 -48 -37 -45 -4 3 -13 -7 -18 -23
-6 -15 -15 -36 -20 -45 -17 -29 -12 -46 21 -69 26 -18 33 -19 40 -8 22 33 118
215 121 229 2 8 10 21 18 28 13 10 10 17 -25 47 -63 56 -69 58 -99 26z"/>
<path d="M2660 953 c-8 -3 -30 -19 -47 -36 -48 -45 -45 -83 14 -166 60 -83 98
-121 124 -121 33 0 85 26 107 55 38 48 29 82 -42 177 -36 47 -72 88 -81 92
-19 7 -54 7 -75 -1z m44 -98 c15 -20 32 -32 38 -29 7 4 8 2 4 -5 -4 -6 8 -33
29 -60 23 -33 32 -52 24 -56 -13 -9 -15 -8 -88 90 -54 73 -64 95 -42 95 5 0
21 -16 35 -35z m-19 -75 c3 -5 2 -10 -4 -10 -5 0 -13 5 -16 10 -3 6 -2 10 4
10 5 0 13 -4 16 -10z"/>
<path d="M1336 924 c-3 -9 -6 -17 -6 -20 0 -8 78 -43 84 -37 3 4 6 2 6 -4 0
-9 117 -63 135 -63 3 0 5 10 5 23 0 16 -6 23 -20 24 -11 1 -27 9 -35 17 -9 8
-32 18 -53 22 -20 4 -51 18 -68 31 -37 27 -40 28 -48 7z m154 -64 c0 -5 -2
-10 -4 -10 -3 0 -8 5 -11 10 -3 6 -1 10 4 10 6 0 11 -4 11 -10z"/>
<path d="M1545 880 c-3 -5 1 -10 9 -10 9 0 16 5 16 10 0 6 -4 10 -9 10 -6 0
-13 -4 -16 -10z"/>
<path d="M2171 869 c-89 -25 -246 -41 -333 -34 -72 7 -204 30 -235 42 -11 4
-14 2 -11 -8 7 -21 138 -48 256 -55 153 -7 392 30 392 62 0 8 -1 13 -2 13 -2
-1 -32 -10 -67 -20z"/>
<path d="M2200 833 c-25 -8 -51 -15 -59 -17 -8 -1 -18 -11 -22 -22 -7 -17 -8
-17 -8 -1 -1 18 -19 20 -61 7 -18 -6 -20 -8 -7 -9 10 -1 16 -5 12 -10 -3 -5 0
-13 6 -17 6 -3 15 0 20 7 5 8 9 9 9 3 0 -6 13 -9 30 -6 18 3 30 10 30 19 0 12
3 13 13 5 20 -17 97 6 97 29 0 26 -10 28 -60 12z"/>
<path d="M1283 823 c-4 -9 -1 -19 5 -21 16 -5 15 -23 -3 -63 l-16 -34 6 43 c3
23 1 42 -3 42 -6 0 -93 -173 -120 -240 -1 -4 11 -13 28 -20 25 -10 33 -10 47
1 15 12 16 12 10 -4 -5 -14 2 -22 36 -37 60 -27 82 -18 112 45 14 30 25 61 25
69 0 9 9 25 19 35 21 21 37 81 28 105 -7 19 -68 57 -125 79 -40 16 -43 16 -49
0z m87 -88 c0 -9 -9 -34 -21 -56 -11 -23 -18 -47 -15 -55 3 -8 2 -13 -2 -10
-5 3 -16 -10 -25 -29 -9 -19 -23 -35 -32 -35 -8 0 -15 2 -15 5 0 3 20 48 44
100 41 88 66 118 66 80z m-108 -100 c-9 -28 -18 -43 -20 -33 -3 17 25 94 33
87 2 -3 -4 -27 -13 -54z m125 -7 c-3 -7 -5 -2 -5 12 0 14 2 19 5 13 2 -7 2
-19 0 -25z"/>
<path d="M1586 833 c-3 -4 -6 -14 -6 -24 0 -14 16 -21 73 -33 120 -25 135 -26
141 -13 3 9 5 9 5 0 1 -9 25 -13 87 -13 54 0 83 4 79 10 -3 6 -1 10 4 10 6 0
11 -4 11 -10 0 -12 57 -13 64 -1 3 5 -5 16 -17 24 -30 19 -157 12 -157 -9 0
-8 -5 -14 -11 -14 -6 0 -9 7 -6 15 6 14 -29 25 -73 24 -8 -1 -39 4 -69 10 -30
6 -56 9 -59 6 -3 -3 -10 -1 -16 4 -17 13 -43 20 -50 14z"/>
<path d="M3065 759 c-221 -226 -509 -383 -832 -455 -46 -10 -83 -22 -83 -27 0
-5 15 -7 33 -3 17 3 47 8 66 11 19 3 38 8 43 11 4 3 21 8 36 10 50 9 227 73
230 84 2 5 13 10 23 10 28 0 75 26 83 45 3 9 10 13 16 10 5 -3 10 -2 10 4 0 6
6 8 13 5 38 -14 438 308 426 344 -2 7 -29 -13 -64 -49z"/>
<path d="M2300 757 c-26 -9 -34 -18 -33 -32 2 -11 5 -38 8 -60 l5 -40 -14 30
c-9 17 -15 38 -16 48 0 26 -17 21 -24 -8 -7 -28 13 -83 37 -104 15 -12 17 -11
18 10 1 23 1 23 10 -3 8 -20 19 -28 49 -33 43 -7 73 -35 68 -62 -5 -26 -21
-22 -36 10 -7 15 -17 27 -22 27 -23 0 -40 -14 -41 -34 -1 -16 -2 -17 -6 -3 -2
9 -9 17 -14 17 -11 0 -11 0 2 -39 8 -22 14 -29 19 -21 6 9 10 6 15 -9 17 -54
175 0 175 61 0 10 -4 18 -9 18 -5 0 -7 9 -4 20 8 29 -45 77 -93 85 -71 11 -84
21 -82 59 1 29 3 32 15 21 7 -8 13 -18 13 -24 0 -18 20 -23 55 -11 40 13 40
12 19 52 -11 21 -18 27 -24 19 -5 -10 -9 -9 -13 3 -7 19 -29 19 -77 3z m57
-263 c3 -8 1 -20 -4 -25 -7 -7 -12 -2 -15 15 -6 28 9 36 19 10z"/>
<path d="M1534 693 c-8 -48 -9 -51 -30 -144 -9 -42 -14 -88 -10 -103 9 -37 61
-66 117 -66 44 0 77 18 62 33 -3 4 1 7 9 7 15 0 18 7 33 103 3 12 12 53 21 90
9 37 14 70 11 73 -3 3 -23 7 -45 10 -38 3 -41 2 -47 -26 -4 -16 -3 -35 1 -41
3 -6 1 -15 -6 -19 -7 -4 -13 -26 -14 -48 0 -22 -4 -38 -8 -35 -5 2 -8 -3 -8
-11 0 -9 5 -16 10 -16 6 0 10 -4 10 -10 0 -5 -7 -10 -15 -10 -8 0 -15 -9 -15
-19 0 -11 -5 -23 -10 -26 -18 -11 -22 22 -11 77 6 29 13 63 15 74 3 12 9 39
15 60 13 48 14 67 2 60 -5 -4 -11 -2 -13 3 -1 5 -17 12 -35 15 -31 7 -32 6
-39 -31z"/>
<path d="M2112 703 l-43 -4 7 -55 c4 -34 3 -54 -4 -54 -6 0 -13 23 -17 50 -6
44 -10 50 -30 50 -13 0 -26 -4 -30 -10 -3 -5 -11 -7 -19 -4 -9 3 -11 -3 -8
-26 4 -25 9 -30 33 -30 16 0 29 -3 29 -7 0 -5 7 -63 16 -130 l17 -123 41 6
c22 4 43 8 45 11 4 3 -10 125 -26 226 -5 35 -4 37 21 37 23 0 26 4 26 35 0 19
-3 34 -7 33 -5 -1 -27 -3 -51 -5z m-2 -149 c6 -14 10 -35 10 -46 0 -20 -1 -20
-25 4 -16 17 -22 31 -18 46 7 29 21 28 33 -4z m20 -100 c0 -8 -4 -12 -10 -9
-5 3 -10 10 -10 16 0 5 5 9 10 9 6 0 10 -7 10 -16z m-53 -36 c-3 -8 -6 -5 -6
6 -1 11 2 17 5 13 3 -3 4 -12 1 -19z"/>
<path d="M1812 523 c0 -105 4 -160 12 -165 17 -11 124 -9 131 2 3 6 1 10 -4
10 -6 0 -11 5 -11 11 0 5 5 7 10 4 6 -3 10 3 10 14 0 17 -6 21 -30 21 -29 0
-30 1 -30 51 0 31 -6 56 -15 65 -8 9 -15 21 -15 27 0 7 7 4 14 -6 12 -16 14
-16 20 -1 3 8 6 40 6 70 l0 54 -50 0 -49 0 1 -157z m48 117 c0 -5 -5 -10 -11
-10 -5 0 -7 5 -4 10 3 6 8 10 11 10 2 0 4 -4 4 -10z"/>
<path d="M960 556 c0 -13 111 -86 198 -130 28 -15 32 -15 32 -1 0 8 -3 14 -7
13 -5 -1 -19 5 -33 13 -57 37 -166 106 -177 113 -8 4 -13 2 -13 -8z"/>
<path d="M1206 411 c-6 -8 43 -35 51 -28 5 6 -26 37 -37 37 -5 0 -11 -4 -14
-9z"/>
<path d="M1270 385 c0 -8 2 -15 4 -15 2 0 33 -11 70 -25 49 -18 66 -21 66 -12
0 8 -15 18 -32 24 -18 6 -50 18 -70 27 -33 14 -38 14 -38 1z"/>
<path d="M1430 330 c0 -12 50 -34 58 -25 8 8 -9 22 -35 30 -14 4 -23 2 -23 -5z"/>
<path d="M1502 309 c6 -19 108 -42 108 -24 0 7 -13 15 -29 18 -16 3 -41 9 -56
13 -21 5 -27 4 -23 -7z"/>
<path d="M1626 282 c-3 -5 0 -9 7 -10 7 -1 39 -6 72 -11 70 -11 297 -14 373
-5 29 4 52 12 52 18 0 9 -19 10 -67 5 -102 -12 -239 -11 -323 0 -93 13 -107
13 -114 3z"/>
</g>
</svg>
